<?xml version="1.0" encoding="UTF-8"?>
<svg version="1.1" xmlns="http://www.w3.org/2000/svg" width="2000" height="2000">
<path d="M0 0 C660 0 1320 0 2000 0 C2000 660 2000 1320 2000 2000 C1340 2000 680 2000 0 2000 C0 1340 0 680 0 0 Z " fill="#FEFEFE" transform="translate(0,0)"/>
<path d="M0 0 C3.83344418 1.04659977 7.67769304 2.05189537 11.52148175 3.05970955 C16.40997273 4.34321554 21.2978591 5.6286854 26.18197656 6.92875099 C42.60852202 11.2983442 59.09768004 15.40230069 75.59974217 19.47573662 C80.74595072 20.74625607 85.8907077 22.02258326 91.03515363 23.30021858 C91.90290073 23.51571078 92.77064784 23.73120299 93.66469032 23.95322526 C95.43292148 24.39234065 97.20115106 24.83146245 98.96937907 25.27059054 C103.47514768 26.38927677 107.98122376 27.5067232 112.48725629 28.62434578 C123.94468437 31.46642891 135.40104639 34.3127964 146.85715985 37.16017342 C147.8413071 37.40477924 148.82545436 37.64938507 149.83942425 37.90140319 C155.90602985 39.40927153 161.97259677 40.91729538 168.03914499 42.42539454 C171.12073554 43.19145194 174.20233268 43.95748279 177.28393102 44.72350883 C191.13262224 48.16606513 204.98115202 51.60927042 218.82958722 55.05285645 C222.22137751 55.89624911 225.61318106 56.73958846 229.004987 57.58291817 C256.94715525 64.53051032 284.88788787 71.4838168 312.82498002 78.45179558 C324.07581872 81.25781804 335.32724312 84.06143962 346.58027387 86.85865974 C356.15475366 89.23863711 365.72803106 91.62337575 375.29975188 94.01442611 C380.20339953 95.23921975 385.10759603 96.46169248 390.01333356 97.67809105 C394.51849414 98.79523397 399.02197505 99.9188998 403.52420652 101.04778767 C405.15694445 101.45595415 406.79028518 101.86171827 408.4242717 102.26485729 C410.64483807 102.8130926 412.86305351 103.37000217 415.08089948 103.92912483 C416.93227726 104.3903823 416.93227726 104.3903823 418.8210566 104.8609581 C423.17341983 106.18931154 426.93259342 107.64063628 430.17722821 110.88527107 C430.85295038 116.96677055 430.85295038 116.96677055 428.65040326 119.96066475 C425.42688879 122.4691796 422.1245572 123.33933211 418.23142743 124.30397224 C417.44040065 124.51146945 416.64937387 124.71896666 415.83437657 124.93275166 C413.28533316 125.59739451 410.73174731 126.24202902 408.17722821 126.88527107 C406.51638238 127.31284733 404.85575688 127.74128038 403.19535565 128.17057991 C397.90579962 129.531365 392.60848967 130.86038748 387.31004071 132.18605232 C385.3723514 132.67208628 383.4346788 133.15818684 381.49702191 133.64435005 C377.47888903 134.6518461 373.46028966 135.65745617 369.44138837 136.6618824 C364.29118122 137.94938283 359.14263859 139.24341474 353.99446034 140.53900051 C350.01306906 141.53989441 346.03062205 142.53653412 342.04786038 143.53195953 C340.14726002 144.00769907 338.24704038 144.48496234 336.34721494 144.96378708 C333.70717218 145.62868189 331.06571411 146.28763085 328.42381024 146.94508553 C327.64360517 147.14294655 326.86340009 147.34080757 326.05955243 147.54466438 C322.62759554 148.39265591 319.73750834 148.88527107 316.17722821 148.88527107 C316.17722821 205.64527107 316.17722821 262.40527107 316.17722821 320.88527107 C317.82722821 320.88527107 319.47722821 320.88527107 321.17722821 320.88527107 C323.97487698 323.24199022 324.17258919 324.84220695 324.56541181 328.4887867 C324.58513748 329.92289991 324.58755755 331.35732151 324.57566571 332.79152107 C324.57853589 333.55323616 324.58140607 334.31495125 324.58436322 335.09974861 C324.58640055 336.70681186 324.58089379 338.31390009 324.56834149 339.9209156 C324.55228198 342.37704748 324.56820017 344.83153397 324.58738446 347.28761482 C324.58540197 348.85142053 324.58155817 350.41522521 324.57566571 351.97902107 C324.58173841 352.71140999 324.5878111 353.4437989 324.59406781 354.19838142 C324.55220214 357.2421359 324.32064839 359.58369412 323.00584149 362.34840584 C320.46815075 364.48121801 318.81098575 364.38738568 315.52097821 364.38136482 C314.41625165 364.38200935 313.31152509 364.38265388 312.17332196 364.38331795 C311.01961102 364.36333748 309.86590009 364.34335701 308.67722821 364.32277107 C307.52351727 364.32986092 306.36980634 364.33695076 305.18113446 364.34425545 C296.89477506 364.28140675 296.89477506 364.28140675 294.34861493 362.87574959 C292.45151848 359.65210903 292.75064074 356.24026936 292.77879071 352.60402107 C292.77592053 351.79412727 292.77305036 350.98423347 292.7700932 350.14979744 C292.76805279 348.43840523 292.77358112 346.72698969 292.78611493 345.01564217 C292.80216964 342.39483218 292.78626628 339.7755643 292.76707196 337.15480232 C292.7690544 335.4920385 292.77289809 333.82927564 292.77879071 332.16652107 C292.77271802 331.38208626 292.76664533 330.59765144 292.76038861 329.78944588 C292.82929026 324.46428018 292.82929026 324.46428018 294.38963056 321.86769295 C296.17722821 320.88527107 296.17722821 320.88527107 301.17722821 320.88527107 C301.17722821 265.44527107 301.17722821 210.00527107 301.17722821 152.88527107 C277.74722821 158.82527107 254.31722821 164.76527107 230.17722821 170.88527107 C222.25722821 172.86527107 214.33722821 174.84527107 206.17722821 176.88527107 C206.16788251 179.64604012 206.15853681 182.40680916 206.1489079 185.25123787 C206.11514438 194.37167498 206.05959892 203.49188567 205.99332547 212.61214161 C205.95381227 218.14191757 205.92164256 223.67153336 205.90623212 229.20143318 C205.89109098 234.53788087 205.85669037 239.87388835 205.80891919 245.21014023 C205.79407919 247.2462532 205.7861857 249.28242901 205.78534436 251.31859589 C205.78298086 254.17031886 205.7559508 257.02081917 205.72312665 259.87233162 C205.72815701 260.71462318 205.73318738 261.55691475 205.73837018 262.4247303 C205.66678278 266.44318533 205.46406974 268.42989138 203.27052045 271.91229439 C201.17722821 273.88527107 201.17722821 273.88527107 199.13865399 274.46583748 C193.43581383 274.18882381 188.45968947 273.05981772 183.05222821 271.26027107 C181.27983773 270.70224708 179.50635329 270.14768845 177.73191571 269.59620857 C176.36051435 269.16840096 176.36051435 269.16840096 174.9614079 268.73195076 C150.46246885 261.28172973 125.19863101 256.28935207 99.92844892 252.32301521 C96.98105753 251.85405854 94.03819222 251.36150315 91.09519696 250.86573982 C82.14580821 249.36913353 73.16737747 248.10974133 64.17722821 246.88527107 C63.27472333 246.76007088 62.37221845 246.63487068 61.44236493 246.50587654 C26.81523413 241.76911725 -7.90046988 240.38977665 -42.81398273 240.56270027 C-46.51914902 240.57622577 -50.22419727 240.57084069 -53.92937732 240.56583214 C-74.98983011 240.54438871 -95.83194301 241.05145888 -116.82277179 242.88527107 C-118.40957347 243.01354071 -119.99647702 243.14056121 -121.58351398 243.26588631 C-125.33293322 243.56723425 -129.07798904 243.90541803 -132.82277179 244.26027107 C-134.13253985 244.38402107 -135.44230792 244.50777107 -136.79176593 244.63527107 C-156.24202682 246.51977394 -175.62957181 249.20582067 -194.82277179 252.88527107 C-195.9547298 253.09941658 -197.0866878 253.31356209 -198.25294757 253.53419685 C-227.83017358 259.0803367 -227.83017358 259.0803367 -256.91261554 266.72511482 C-261.27634413 268.04028381 -265.6839245 269.13289655 -270.11574054 270.19386482 C-272.81123956 270.88232561 -275.42857205 271.71009589 -278.07277179 272.57277107 C-282.5706838 273.93226859 -286.13281335 274.45130054 -290.82277179 273.88527107 C-293.76517636 271.7163966 -294.71710588 270.54134894 -295.30378985 266.89863777 C-295.29490741 265.73503731 -295.28602496 264.57143684 -295.27687335 263.37257576 C-295.27745746 262.728256 -295.27804156 262.08393623 -295.27864337 261.42009163 C-295.27586512 259.2985543 -295.24478953 257.17843671 -295.21339679 255.05714607 C-295.20593337 253.58313451 -295.20024091 252.10911301 -295.19624591 250.63508797 C-295.18099718 246.7616184 -295.14172286 242.88875192 -295.09742999 239.0155201 C-295.0564603 235.06072841 -295.03823133 231.10583896 -295.01808429 227.15089607 C-294.97522707 219.39541325 -294.90698601 211.64042677 -294.82277179 203.88527107 C-291.64936103 202.60526191 -288.47447755 201.32894467 -285.29933429 200.05323982 C-284.4093172 199.69419563 -283.51930011 199.33515144 -282.6023128 198.96522713 C-270.73951952 194.20432179 -258.66462132 190.48213239 -246.33839679 187.13136482 C-242.78525113 186.16129245 -239.25623442 185.12767892 -235.73097491 184.06129646 C-207.66450326 175.59215102 -178.80626988 169.2204735 -149.82277179 164.88527107 C-148.28076154 164.6508521 -146.73877058 164.41630621 -145.19679523 164.18165779 C-100.31790359 157.3891163 -55.91620519 154.85214678 -10.54768634 154.71104622 C-7.94769966 154.70236296 -5.34772033 154.69093906 -2.74775958 154.67643929 C14.143834 154.59339648 30.84344962 155.19958676 47.67710614 156.59727669 C52.57640444 157.00039703 57.47814267 157.36935342 62.37992597 157.74081612 C67.31288994 158.11552667 72.24510467 158.4996777 77.17722821 158.88527107 C70.10671681 157.91429285 63.03460983 156.95558967 55.9614079 156.0044117 C53.56814398 155.68122207 51.17522303 155.35547985 48.78269696 155.02687263 C33.72591545 152.9610011 18.72399988 151.32162719 3.55955243 150.29298592 C-0.60577157 150.00286396 -4.69295765 149.51165535 -8.82277179 148.88527107 C-58.39278368 144.21059424 -109.15333663 145.81203346 -158.63527179 150.82277107 C-159.42094531 150.9020887 -160.20661883 150.98140633 -161.01610065 151.06312752 C-170.35151278 152.0223272 -179.60763221 153.2646781 -188.86830401 154.78450203 C-193.84177097 155.5954406 -198.80441092 156.26235575 -203.81105304 156.83448982 C-212.98453627 157.94389974 -221.9728386 159.79613032 -231.01027179 161.69777107 C-232.74543955 162.05895617 -234.48062853 162.42003929 -236.21583819 162.78102303 C-259.84611529 167.70711322 -259.84611529 167.70711322 -283.06056476 174.27467537 C-292.78783402 177.31616308 -300.03892776 176.80559493 -309.83497882 174.25514412 C-311.01099784 173.96200986 -312.18701686 173.6688756 -313.39867282 173.36685848 C-316.62129739 172.56037242 -319.83991713 171.74043153 -323.05752778 170.91431999 C-326.4849193 170.03787733 -329.91673751 169.17910813 -333.34807086 168.31825447 C-339.94647299 166.65998601 -346.54075045 164.98587295 -353.13373935 163.30622756 C-360.69517156 161.38064539 -368.26092585 159.47232791 -375.82703471 157.56521952 C-389.87209608 154.0245492 -403.9127866 150.46684336 -417.95126605 146.90017605 C-429.0220492 144.08757211 -440.09532599 141.2849128 -451.16985965 138.48711395 C-461.07025085 135.9857571 -470.97018578 133.48264 -480.86622882 130.96412849 C-482.13890613 130.64027672 -483.41158343 130.31642494 -484.72282672 129.98275948 C-487.07604058 129.38296061 -489.42891115 128.78181251 -491.78135943 128.17901802 C-496.50894505 126.96945813 -501.2369688 125.77602351 -505.98878741 124.66505623 C-507.12855029 124.39499512 -507.12855029 124.39499512 -508.29133868 124.11947823 C-510.19978658 123.67083036 -512.11122171 123.23493643 -514.0229671 122.80055428 C-516.85510861 121.87469985 -518.14602223 121.32368375 -519.82277179 118.88527107 C-520.43334871 113.39007876 -520.43334871 113.39007876 -519.82277179 110.88527107 C-516.89029613 107.34684771 -514.5095219 106.191072 -510.08028579 105.13191414 C-508.90268892 104.84272354 -507.72509205 104.55353294 -506.51181042 104.25557899 C-505.20567023 103.949998 -503.89948666 103.64460239 -502.59326434 103.33937263 C-501.2092321 103.00464992 -499.82552745 102.6685702 -498.44212663 102.33124733 C-495.4387163 101.60158981 -492.43338537 100.88068536 -489.42629898 100.16633034 C-484.53743877 99.00446318 -479.6536768 97.82210877 -474.77069259 96.63582039 C-473.06851492 96.22246377 -471.36633167 95.80913013 -469.66414303 95.39581871 C-468.8080862 95.18793677 -467.95202937 94.98005483 -467.07003143 94.76587343 C-464.41382082 94.12159867 -461.75716325 93.47919722 -459.10038239 92.83727837 C-440.35177318 88.30483753 -421.64062835 83.62521752 -402.93110903 78.93449163 C-398.27437104 77.76744898 -393.61711342 76.60248406 -388.95987868 75.43742561 C-381.23187683 73.50401685 -373.50408042 71.56978962 -365.77646327 69.63484383 C-354.53583822 66.82033345 -343.2947318 64.00774907 -332.05350702 61.19563508 C-313.77563782 56.623223 -295.49795191 52.0500788 -277.22047687 47.47609138 C-276.13991043 47.20567724 -275.05934399 46.9352631 -273.94603311 46.6566546 C-261.81516078 43.62084982 -249.68436236 40.58474994 -237.55366778 37.54823494 C-236.45225542 37.27253324 -235.35084305 36.99683153 -234.21605456 36.71277523 C-231.99204085 36.15606695 -229.76802717 35.59935862 -227.54401349 35.04265022 C-226.44434602 34.76738503 -225.34467854 34.49211983 -224.2116878 34.20851326 C-223.11341031 33.9335955 -222.01513282 33.65867775 -220.8835742 33.37542915 C-202.57318054 28.79207364 -184.26233305 24.21053424 -165.9511134 19.63047981 C-154.72540169 16.82259489 -143.50007315 14.01318783 -132.27524578 11.20176971 C-124.62838464 9.28662922 -116.98110078 7.37318331 -109.33348066 5.4610759 C-104.93052752 4.36016185 -100.5277706 3.2584786 -96.12552905 2.15472221 C-92.0951191 1.1442086 -88.06416766 0.13588534 -84.03278213 -0.87072897 C-82.57900369 -1.2341359 -81.12542298 -1.59833502 -79.67206682 -1.96342707 C-51.49679857 -9.03946566 -27.90922584 -7.68624413 0 0 Z " fill="#0097B2" transform="translate(1044.8227717876434,333.1147289276123)"/>
<path d="M0 0 C8.96438023 7.07574226 15.68180976 14.98161421 21.375 24.8125 C22.42948064 26.60115086 23.48555149 28.3888649 24.54296875 30.17578125 C25.10161621 31.12146973 25.66026367 32.0671582 26.23583984 33.04150391 C29.32937252 38.22935735 32.5118197 43.36217384 35.6875 48.5 C41.30497161 57.60459564 46.88994608 66.72769219 52.4375 75.875 C52.78844727 76.45365814 53.13939453 77.03231628 53.50097656 77.62850952 C55.28304889 80.56730564 57.06451876 83.50646641 58.84570312 86.44580078 C62.45623769 92.40342881 66.07206161 98.35784716 69.6875 104.3125 C70.04187134 104.89621368 70.39624268 105.47992737 70.76135254 106.08132935 C77.26534987 116.79448444 83.77956924 127.50139536 90.29833984 138.20556641 C93.19959437 142.96995081 96.09973207 147.73501498 99 152.5 C100.16666151 154.41666981 101.33332817 156.33333648 102.5 158.25 C123.5 192.75 123.5 192.75 125.24951172 195.62426758 C126.4177234 197.54342593 127.58601784 199.4625339 128.75439453 201.3815918 C131.64809886 206.13472879 134.54042045 210.8886955 137.4296875 215.64453125 C142.4022712 223.82641609 147.38110846 232.00411483 152.40234375 240.15625 C152.77075378 240.75439011 153.13916382 241.35253021 153.51873779 241.96879578 C155.32259458 244.89659983 157.12792504 247.82348496 158.93505859 250.74926758 C159.58168457 251.79751709 160.22831055 252.8457666 160.89453125 253.92578125 C161.47050049 254.85817627 162.04646973 255.79057129 162.63989258 256.7512207 C164 259 164 259 165 261 C165.00219984 259.34320048 165.00219984 259.34320048 165.00444412 257.65293026 C165.04109529 230.73431883 165.10061849 203.81583127 165.18390274 176.89732265 C165.22365354 163.87954448 165.25606617 150.8618264 165.27099609 137.84399414 C165.28403309 126.49308663 165.31105013 115.14231159 165.35461307 103.79147869 C165.37718164 97.78543551 165.39291343 91.77955545 165.39188385 85.77346611 C165.39113453 80.11073584 165.40919458 74.44836552 165.44116783 68.78572845 C165.4496285 66.71668453 165.45144309 64.64760006 165.44580269 62.57854652 C165.39854218 42.56318086 168.34870026 26.44762964 182.25 11.125 C189.40851257 4.56580476 198.53833265 -0.76394189 208 -3 C208.76957031 -3.18304687 209.53914063 -3.36609375 210.33203125 -3.5546875 C227.19369148 -6.36907881 241.32013463 -1.61820814 254.90234375 8.0703125 C264.87927266 16.40235483 272.97077725 29.34175765 274.36903834 42.46306157 C274.50799684 46.48032676 274.52455495 50.47997029 274.49447632 54.49868774 C274.49765793 56.04857166 274.5025905 57.5984528 274.50910914 59.14832628 C274.52186716 63.38182519 274.50985416 67.61493822 274.49358058 71.84841156 C274.48037219 76.42376881 274.49033528 80.99908482 274.49734497 85.57444763 C274.50740767 94.5269572 274.49617288 103.47931854 274.47764437 112.43180968 C274.45683708 122.8616328 274.45701778 133.2914242 274.45798953 143.72126417 C274.45898993 162.33178546 274.4406897 180.94223792 274.41162109 199.55273438 C274.38343985 217.60450494 274.36927998 235.65621495 274.37060547 253.70800781 C274.37068538 254.82015257 274.37076529 255.93229732 274.37084763 257.07814343 C274.37092834 258.18838133 274.37100905 259.29861924 274.3710922 260.44250071 C274.3724725 281.00619177 274.36068933 301.56985714 274.34278577 322.13353986 C274.33675792 329.40108618 274.33462723 336.66862776 274.33372116 343.9361763 C274.33235571 352.79307292 274.32340979 361.64992623 274.30505554 370.50680448 C274.29583356 375.02435541 274.28972342 379.54185103 274.29224396 384.059412 C274.29444056 388.19703888 274.2873576 392.33454359 274.27294691 396.47214501 C274.26933288 397.96657851 274.26904732 399.46102467 274.27248149 400.9554586 C274.30881654 418.74042682 270.62384508 431.3631186 258.625 444.625 C251.86944317 450.73717046 245.68493771 455.08661072 237 458 C235.66001953 458.53173828 235.66001953 458.53173828 234.29296875 459.07421875 C229.23902863 460.49507736 224.21087213 460.42832842 218.98828125 460.56640625 C214.24984967 460.73967163 210.49434102 461.37018402 206 463 C188.07084107 466.16638816 173.2090731 463.1566181 158.1953125 452.8671875 C149.87538817 445.99403033 144.15436311 436.47024233 138.8125 427.25 C137.50856046 425.03862129 136.20385576 422.82769361 134.8984375 420.6171875 C134.24842773 419.51084961 133.59841797 418.40451172 132.92871094 417.26464844 C129.97927811 412.2722667 126.96104309 407.32273221 123.9375 402.375 C122.77725708 400.47270911 121.61710072 398.57036542 120.45703125 396.66796875 C119.88549316 395.73130371 119.31395508 394.79463867 118.72509766 393.82958984 C117.00552721 391.009066 115.28929913 388.18653731 113.57421875 385.36328125 C107.4761801 375.3271424 101.35009989 365.30913836 95.1875 355.3125 C87.44742233 342.75395936 79.786431 330.14855152 72.14111328 317.53222656 C70.0111875 314.01781869 67.87900456 310.50478438 65.74609375 306.9921875 C65.39567017 306.41509033 65.04524658 305.83799316 64.6842041 305.2434082 C63.62284099 303.49558223 62.56143008 301.7477853 61.5 300 C57.59356283 293.56753344 53.68718504 287.13503734 49.78692627 280.69882202 C41.83239579 267.57237493 33.84959912 254.46460044 25.79077148 241.40185547 C21.92938054 235.1423594 18.08522922 228.87264224 14.25146484 222.59619141 C13.49140388 221.35214287 13.49140388 221.35214287 12.71598816 220.08296204 C11.47723109 218.05536564 10.23857056 216.02771033 9 214 C8.99853344 215.13545541 8.99706688 216.27091082 8.99555588 217.44077396 C8.95890795 245.11045148 8.89938897 272.78000845 8.81609726 300.44958591 C8.80817245 303.11702524 8.80027985 305.78446461 8.79248047 308.4519043 C8.78956841 309.44636295 8.78956841 309.44636295 8.78659752 310.46091168 C8.75757035 320.50478075 8.74020917 330.54862563 8.72900391 340.5925293 C8.71596866 352.25986124 8.68895605 363.92706425 8.64538693 375.59432358 C8.62281445 381.76803978 8.6070868 387.94159722 8.60811615 394.11535835 C8.60886524 399.93567358 8.59081441 405.75563839 8.55883217 411.57586288 C8.5503686 413.70295931 8.54855892 415.83009521 8.55419731 417.957201 C8.5984238 437.2192894 6.56148195 454.16759864 -7.3125 468.875 C-19.02744921 479.83670375 -33.17714459 484.4895421 -49.015625 484.2109375 C-64.39571792 483.39669729 -76.48662793 477.12336294 -87 466 C-97.91697277 452.69886077 -100.3037633 439.83505988 -100.26742554 423.05378723 C-100.27116456 421.41859992 -100.27576709 419.78341439 -100.28115618 418.14823169 C-100.2933705 413.66495907 -100.29312756 409.18176117 -100.29076743 404.69847572 C-100.29035887 399.85918334 -100.30140224 395.01991479 -100.31088257 390.18063354 C-100.32748518 380.70304175 -100.33299179 371.22547483 -100.33410732 361.74786971 C-100.33505819 354.04221825 -100.33917044 346.33657499 -100.34550858 338.63092613 C-100.36311934 316.775042 -100.37234776 294.9191775 -100.37084763 273.06328622 C-100.37076772 271.88538761 -100.3706878 270.707489 -100.37060547 269.49389648 C-100.37052371 268.31455647 -100.37044195 267.13521645 -100.37035771 265.92013886 C-100.36954496 246.81111045 -100.38868021 227.7021609 -100.4168822 208.5931553 C-100.4456237 188.96338823 -100.45942178 169.3336596 -100.45769465 149.70387095 C-100.45703116 138.68679676 -100.4625053 127.66980523 -100.48405075 116.65275002 C-100.50227922 107.2717984 -100.5065962 97.89096689 -100.4930319 88.51000521 C-100.48651057 83.72660059 -100.48635488 78.9434263 -100.5037384 74.16004372 C-100.51951117 69.7746565 -100.51656277 65.38968144 -100.49917014 61.00430401 C-100.49610947 59.42423968 -100.49969721 57.84414427 -100.51089029 56.26411662 C-100.624604 39.06252772 -96.29367972 24.41870542 -84.3125 11.6875 C-63.1328609 -7.98603143 -25.41122893 -16.39957905 0 0 Z " fill="#000000" transform="translate(904,654)"/>
<path d="M0 0 C9.97692891 8.33204233 18.0684335 21.27144515 19.46669459 34.39274907 C19.60565309 38.41001426 19.6222112 42.40965779 19.59213257 46.42837524 C19.59531418 47.97825916 19.60024675 49.5281403 19.60676539 51.07801378 C19.61952341 55.31151269 19.60751041 59.54462572 19.59123683 63.77809906 C19.57802844 68.35345631 19.58799153 72.92877232 19.59500122 77.50413513 C19.60506392 86.4566447 19.59382913 95.40900604 19.57530062 104.36149718 C19.55449333 114.7913203 19.55467403 125.2211117 19.55564578 135.65095167 C19.55664618 154.26147296 19.53834595 172.87192542 19.50927734 191.48242188 C19.4810961 209.53419244 19.46693623 227.58590245 19.46826172 245.63769531 C19.46838159 247.30591244 19.46838159 247.30591244 19.46850388 249.00783093 C19.46862494 250.67318779 19.46862494 250.67318779 19.46874845 252.37218821 C19.47012875 272.93587927 19.45834558 293.49954464 19.44044202 314.06322736 C19.43441417 321.33077368 19.43228348 328.59831526 19.43137741 335.8658638 C19.43001196 344.72276042 19.42106604 353.57961373 19.40271179 362.43649198 C19.39348981 366.95404291 19.38737967 371.47153853 19.38990021 375.9890995 C19.39209681 380.12672638 19.38501385 384.26423109 19.37060316 388.40183251 C19.36698913 389.89626601 19.36670357 391.39071217 19.37013774 392.8851461 C19.40647279 410.67011432 15.72150133 423.2928061 3.72265625 436.5546875 C-3.03290058 442.66685796 -9.21740604 447.01629822 -17.90234375 449.9296875 C-19.21525391 450.45755859 -19.21525391 450.45755859 -20.5546875 450.99609375 C-25.12379541 452.27032571 -29.55425757 452.39298412 -34.27734375 452.5546875 C-35.20417969 452.59335938 -36.13101562 452.63203125 -37.0859375 452.671875 C-39.35788145 452.76556341 -41.62982971 452.85128098 -43.90234375 452.9296875 C-43.90234375 452.2696875 -43.90234375 451.6096875 -43.90234375 450.9296875 C-44.93359375 450.9090625 -45.96484375 450.8884375 -47.02734375 450.8671875 C-58.08194658 449.43636125 -68.65739369 442.06891583 -75.90234375 433.9296875 C-85.35763897 421.3226272 -89.18100059 409.1129912 -89.23706055 393.50610352 C-89.24867564 392.37761742 -89.26029074 391.24913132 -89.2722578 390.08644867 C-89.30846744 386.28551207 -89.33026373 382.48464129 -89.3515625 378.68359375 C-89.36724559 376.61783818 -89.38432042 374.5520972 -89.40152812 372.48635381 C-89.4777407 363.29796729 -89.52887872 354.10950298 -89.57679796 344.92093277 C-89.59416362 341.68795331 -89.61343799 338.45498647 -89.63274795 335.22201812 C-90.00516094 272.65684663 -89.94862259 210.09069159 -89.74726599 147.52500004 C-89.72026484 138.89396135 -89.70289011 130.26293566 -89.68930054 121.63186646 C-89.67216317 111.0040762 -89.64006147 100.37644989 -89.58950448 89.74876422 C-89.56366445 84.2625243 -89.54391053 78.77644801 -89.54083633 73.29014397 C-89.53766855 68.21439343 -89.51570268 63.13906554 -89.47942603 58.06344688 C-89.46943339 56.22643628 -89.46599061 54.38937496 -89.47001112 52.55234158 C-89.50392853 33.35366598 -85.92567296 17.68514015 -72.65234375 3.0546875 C-65.49383118 -3.50450774 -56.3640111 -8.83425439 -46.90234375 -11.0703125 C-46.13277344 -11.25335937 -45.36320312 -11.43640625 -44.5703125 -11.625 C-27.70865227 -14.43939131 -13.58220912 -9.68852064 0 0 Z " fill="#0097B1" transform="translate(1158.90234375,662.0703125)"/>
<path d="M0 0 C1.09062744 0.00837891 2.18125488 0.01675781 3.30493164 0.02539062 C17.11452652 0.40901882 29.00641868 4.4738899 38.8125 14.625 C47.76671142 24.90119145 51.98959494 37.37957358 52 50.8125 C52.01224609 51.62525391 52.02449219 52.43800781 52.03710938 53.27539062 C52.06979547 66.970863 47.77134464 79.46973181 38.31469727 89.52636719 C33.48308652 94.31558837 28.16327174 97.21170674 21.8125 99.625 C21.01070312 99.96144531 20.20890625 100.29789063 19.3828125 100.64453125 C7.59754392 104.76749262 -9.13232821 104.61821714 -20.65625 99.8828125 C-34.3548502 93.07579203 -42.54663104 84.891242 -48.1875 70.625 C-52.25498388 56.86786565 -51.88421396 39.43105911 -45.67578125 26.46875 C-38.56156874 13.55125853 -29.05582069 6.35002531 -15.21142578 1.46069336 C-10.14439667 0.06036713 -5.23187445 -0.05527343 0 0 Z " fill="#0197B2" transform="translate(943.1875,1422.375)"/>
<path d="M0 0 C1.01578125 -0.01160156 2.0315625 -0.02320313 3.078125 -0.03515625 C16.84708053 0.01780127 27.68703339 4.59225828 37.671875 13.94921875 C48.71535562 25.45593262 52.38825014 39.30779933 52.37280273 54.90625 C51.99776298 69.58313052 45.49813163 82.3273479 35 92.375 C21.84516439 102.96895573 4.13554376 103.76043529 -12 102.375 C-24.53659795 100.04791539 -35.67587124 91.53427538 -43 81.375 C-50.84618556 67.5220277 -52.24039423 50.45423393 -49.3515625 34.87890625 C-48.43882519 32.19140196 -47.38289204 29.85200368 -46 27.375 C-45.47921875 26.43527344 -44.9584375 25.49554687 -44.421875 24.52734375 C-37.3281305 12.65650554 -28.21544681 4.817618 -14.79418945 0.97265625 C-9.87097594 -0.08038234 -5.01570042 -0.05728592 0 0 Z " fill="#0197B2" transform="translate(649,1422.625)"/>
<path d="M0 0 C4.24956311 2.97395254 6.59427278 6.63438083 8.23828125 11.56640625 C8.33310033 13.803257 8.36622468 16.04287924 8.36767578 18.28173828 C8.37030426 19.29946571 8.37030426 19.29946571 8.37298584 20.3377533 C8.37739008 22.58326775 8.37446941 24.82870348 8.37109375 27.07421875 C8.37176767 28.64020808 8.37273843 30.20619731 8.37399292 31.77218628 C8.37546835 35.05907179 8.37332204 38.34593015 8.36865234 41.6328125 C8.36298336 45.82553357 8.36621698 50.01819023 8.37222481 54.21090889 C8.37585876 57.44874547 8.37467839 60.68656709 8.37209702 63.92440414 C8.3714341 65.46880984 8.37223375 67.01321694 8.37457657 68.557621 C8.40030789 90.30754406 8.40030789 90.30754406 4.98828125 94.00390625 C-3.14596537 98.62563728 -12.68298629 99.15041458 -21.71484375 96.796875 C-36.04822574 90.41897075 -42.71105937 74.57610268 -49.76171875 61.56640625 C-49.76002686 62.9436084 -49.76002686 62.9436084 -49.75830078 64.34863281 C-49.76824129 67.76384481 -49.804825 71.17663005 -49.859375 74.59130859 C-49.87751502 76.0674531 -49.88510705 77.54376719 -49.88183594 79.02001953 C-49.87897241 81.14618567 -49.91433696 83.26885102 -49.95703125 85.39453125 C-49.96750488 86.67231445 -49.97797852 87.95009766 -49.98876953 89.26660156 C-50.76171875 92.56640625 -50.76171875 92.56640625 -53.66748047 94.93652344 C-54.6885791 95.47438477 -55.70967773 96.01224609 -56.76171875 96.56640625 C-57.52484375 96.97890625 -58.28796875 97.39140625 -59.07421875 97.81640625 C-66.42875995 99.86883635 -71.95856734 98.64410974 -78.59375 94.9921875 C-83.02958678 92.07492547 -85.15498955 88.52081203 -86.76171875 83.56640625 C-86.93849583 80.89215105 -87.01508042 78.32646905 -86.98876953 75.6550293 C-86.98906158 74.87401352 -86.98935364 74.09299774 -86.98965454 73.28831482 C-86.98826611 70.7181368 -86.97272796 68.14825211 -86.95703125 65.578125 C-86.95329939 63.79165302 -86.95045323 62.00517899 -86.94845581 60.21870422 C-86.94083299 55.52511915 -86.92119611 50.83165857 -86.89904785 46.13812256 C-86.8785603 41.34535404 -86.86944787 36.55256534 -86.859375 31.75976562 C-86.83794895 22.36192458 -86.80382931 12.96417578 -86.76171875 3.56640625 C-77.42989335 -1.80247716 -69.30752005 -4.59052123 -58.31640625 -1.81640625 C-47.66469854 2.90376227 -42.58342594 14.73358586 -37.38671875 24.44140625 C-36.65717604 25.78565924 -35.92671345 27.12941342 -35.1953125 28.47265625 C-30.35537378 37.37909618 -30.35537378 37.37909618 -28.76171875 40.56640625 C-28.76341064 38.92442261 -28.76341064 38.92442261 -28.76513672 37.24926758 C-28.76145767 33.1766412 -28.71859631 29.10519578 -28.6640625 25.03295898 C-28.64592636 23.27261982 -28.63832969 21.51213853 -28.64160156 19.75170898 C-28.64446577 17.21617201 -28.6090841 14.68356747 -28.56640625 12.1484375 C-28.57550018 11.36491409 -28.58459412 10.58139069 -28.59396362 9.77412415 C-28.45218611 4.40960008 -28.45218611 4.40960008 -26.45391846 1.96932983 C-18.0540874 -5.16528089 -9.41741719 -5.14076739 0 0 Z " fill="#0298B2" transform="translate(1421.76171875,1426.43359375)"/>
<path d="M0 0 C4.24956311 2.97395254 6.59427278 6.63438083 8.23828125 11.56640625 C8.33310033 13.803257 8.36622468 16.04287924 8.36767578 18.28173828 C8.37030426 19.29946571 8.37030426 19.29946571 8.37298584 20.3377533 C8.37739008 22.58326775 8.37446941 24.82870348 8.37109375 27.07421875 C8.37176767 28.64020808 8.37273843 30.20619731 8.37399292 31.77218628 C8.37546835 35.05907179 8.37332204 38.34593015 8.36865234 41.6328125 C8.36298336 45.82553357 8.36621698 50.01819023 8.37222481 54.21090889 C8.37585876 57.44874547 8.37467839 60.68656709 8.37209702 63.92440414 C8.3714341 65.46880984 8.37223375 67.01321694 8.37457657 68.557621 C8.40030789 90.30754406 8.40030789 90.30754406 4.98828125 94.00390625 C-3.14596537 98.62563728 -12.68298629 99.15041458 -21.71484375 96.796875 C-36.04822574 90.41897075 -42.71105937 74.57610268 -49.76171875 61.56640625 C-49.76002686 62.9436084 -49.76002686 62.9436084 -49.75830078 64.34863281 C-49.76824129 67.76384481 -49.804825 71.17663005 -49.859375 74.59130859 C-49.87751502 76.0674531 -49.88510705 77.54376719 -49.88183594 79.02001953 C-49.87897241 81.14618567 -49.91433696 83.26885102 -49.95703125 85.39453125 C-49.96750488 86.67231445 -49.97797852 87.95009766 -49.98876953 89.26660156 C-50.76171875 92.56640625 -50.76171875 92.56640625 -53.66748047 94.93652344 C-54.6885791 95.47438477 -55.70967773 96.01224609 -56.76171875 96.56640625 C-57.52484375 96.97890625 -58.28796875 97.39140625 -59.07421875 97.81640625 C-66.42875995 99.86883635 -71.95856734 98.64410974 -78.59375 94.9921875 C-83.02958678 92.07492547 -85.15498955 88.52081203 -86.76171875 83.56640625 C-86.93849583 80.89215105 -87.01508042 78.32646905 -86.98876953 75.6550293 C-86.98906158 74.87401352 -86.98935364 74.09299774 -86.98965454 73.28831482 C-86.98826611 70.7181368 -86.97272796 68.14825211 -86.95703125 65.578125 C-86.95329939 63.79165302 -86.95045323 62.00517899 -86.94845581 60.21870422 C-86.94083299 55.52511915 -86.92119611 50.83165857 -86.89904785 46.13812256 C-86.8785603 41.34535404 -86.86944787 36.55256534 -86.859375 31.75976562 C-86.83794895 22.36192458 -86.80382931 12.96417578 -86.76171875 3.56640625 C-77.42989335 -1.80247716 -69.30752005 -4.59052123 -58.31640625 -1.81640625 C-47.66469854 2.90376227 -42.58342594 14.73358586 -37.38671875 24.44140625 C-36.65717604 25.78565924 -35.92671345 27.12941342 -35.1953125 28.47265625 C-30.35537378 37.37909618 -30.35537378 37.37909618 -28.76171875 40.56640625 C-28.76341064 38.92442261 -28.76341064 38.92442261 -28.76513672 37.24926758 C-28.76145767 33.1766412 -28.71859631 29.10519578 -28.6640625 25.03295898 C-28.64592636 23.27261982 -28.63832969 21.51213853 -28.64160156 19.75170898 C-28.64446577 17.21617201 -28.6090841 14.68356747 -28.56640625 12.1484375 C-28.57550018 11.36491409 -28.58459412 10.58139069 -28.59396362 9.77412415 C-28.45218611 4.40960008 -28.45218611 4.40960008 -26.45391846 1.96932983 C-18.0540874 -5.16528089 -9.41741719 -5.14076739 0 0 Z " fill="#0298B2" transform="translate(792.76171875,1426.43359375)"/>
<path d="M0 0 C4.34174387 3.98824072 6.86479766 7.35774164 7.17408752 13.40219116 C7.20138087 14.83363076 7.22309038 16.26518316 7.24047852 17.69677734 C7.25347488 18.47922318 7.26647125 19.26166901 7.27986145 20.06782532 C7.40633979 28.23082334 7.46326459 36.39483687 7.51489258 44.55859375 C7.54168022 48.43319414 7.59047214 52.3065714 7.65844727 56.18066406 C7.74032292 60.85916869 7.78306301 65.53650469 7.79795647 70.2156868 C7.81021377 71.99799947 7.83626918 73.7802729 7.87640572 75.56217575 C8.17558736 89.54081968 8.17558736 89.54081968 5.2338562 93.19219971 C3.15760966 94.51554102 1.35563969 95.31784026 -1 96 C-1.99 96.495 -1.99 96.495 -3 97 C-21.36387416 98.20451218 -21.36387416 98.20451218 -28 93 C-28.96808594 92.26007813 -29.93617187 91.52015625 -30.93359375 90.7578125 C-34.10391377 88.08400717 -36.17919758 85.09292583 -38.375 81.5625 C-38.75003662 80.96356934 -39.12507324 80.36463867 -39.51147461 79.74755859 C-43.52837318 73.27368935 -47.27717565 66.64588828 -51 60 C-50.9685791 60.94842773 -50.9371582 61.89685547 -50.90478516 62.87402344 C-50.80239301 66.40028782 -50.72725125 69.92496928 -50.67041016 73.45214844 C-50.64027323 74.97714183 -50.59935392 76.50196237 -50.54736328 78.02636719 C-50.47439507 80.22113641 -50.4405186 82.41361251 -50.4140625 84.609375 C-50.38309479 85.2886908 -50.35212708 85.96800659 -50.32022095 86.66790771 C-50.31884766 88.60839844 -50.31884766 88.60839844 -51 92 C-56.60354196 96.6691401 -62.48079737 98.51483436 -69.69921875 98.30859375 C-76.44214828 97.40419403 -80.72996355 93.75388745 -84.87109375 88.5859375 C-87.44047328 84.97635933 -87.18937973 81.60572171 -87.24047852 77.32495117 C-87.25347488 76.5328978 -87.26647125 75.74084442 -87.27986145 74.92478943 C-87.4065044 66.64698187 -87.4633029 58.36815791 -87.51489258 50.08959961 C-87.54166556 46.15966773 -87.5904324 42.23094417 -87.65844727 38.30151367 C-87.74032291 33.55932542 -87.78306402 28.8182904 -87.79795647 24.07543373 C-87.81021644 22.26800337 -87.83627792 20.46061188 -87.87640572 18.65358543 C-88.17515711 4.49282662 -88.17515711 4.49282662 -85.25624084 0.78486633 C-83.15931189 -0.56826806 -81.40314088 -1.36134662 -79 -2 C-78.12988281 -2.26167969 -77.25976562 -2.52335937 -76.36328125 -2.79296875 C-68.22298342 -3.50608575 -60.82761424 -4.12438144 -54 1 C-43.19983092 10.93818376 -36.91889988 26.22797105 -30 39 C-30.01683838 37.94087402 -30.03367676 36.88174805 -30.05102539 35.79052734 C-30.1018438 31.84267644 -30.09324698 27.89676027 -30.06713867 23.94873047 C-30.0640655 22.2436054 -30.07688582 20.53837191 -30.10620117 18.83349609 C-30.33325066 4.69037738 -30.33325066 4.69037738 -27.06591797 0.54785156 C-18.43717673 -5.36970699 -8.85788995 -5.53015271 0 0 Z " fill="#0197B2" transform="translate(1263,1221)"/>
<path d="M0 0 C8.02700213 7.69254371 12.53618201 17.78016725 12.92578125 28.94140625 C12.92447719 30.71101798 12.90750025 32.48068626 12.875 34.25 C12.87822266 35.13107422 12.88144531 36.01214844 12.88476562 36.91992188 C12.76035447 52.24511433 7.61286672 66.33759395 -3.08984375 77.39453125 C-7.62231211 81.60706067 -12.78238311 84.26018955 -18.4375 86.6875 C-19.15035156 87.00976562 -19.86320312 87.33203125 -20.59765625 87.6640625 C-32.49504774 92.15443601 -50.48918963 91.38579012 -62.140625 86.5703125 C-68.97522695 83.03310623 -72.0216519 78.90019727 -74.4375 71.6875 C-76.331318 62.89108291 -76.72378096 54.19871183 -76.66796875 45.23046875 C-76.66751053 44.0026619 -76.66705231 42.77485504 -76.6665802 41.50984192 C-76.66358231 38.93762229 -76.65577099 36.36540408 -76.64331055 33.79321289 C-76.62496699 29.86793562 -76.62280193 25.94289397 -76.62304688 22.01757812 C-76.61813355 19.50520631 -76.61230604 16.99283607 -76.60546875 14.48046875 C-76.60435593 13.31573532 -76.6032431 12.15100189 -76.60209656 10.95097351 C-76.56821863 5.11715203 -76.46611643 -0.56084463 -75.4375 -6.3125 C-59.27816471 -22.23650517 -14.64339133 -12.39056189 0 0 Z " fill="#0197B2" transform="translate(1268.4375,1435.3125)"/>
<path d="M0 0 C8.02700213 7.69254371 12.53618201 17.78016725 12.92578125 28.94140625 C12.92447719 30.71101798 12.90750025 32.48068626 12.875 34.25 C12.87822266 35.13107422 12.88144531 36.01214844 12.88476562 36.91992188 C12.76035447 52.24511433 7.61286672 66.33759395 -3.08984375 77.39453125 C-7.62231211 81.60706067 -12.78238311 84.26018955 -18.4375 86.6875 C-19.15035156 87.00976562 -19.86320312 87.33203125 -20.59765625 87.6640625 C-32.49504774 92.15443601 -50.48918963 91.38579012 -62.140625 86.5703125 C-68.97522695 83.03310623 -72.0216519 78.90019727 -74.4375 71.6875 C-76.331318 62.89108291 -76.72378096 54.19871183 -76.66796875 45.23046875 C-76.66751053 44.0026619 -76.66705231 42.77485504 -76.6665802 41.50984192 C-76.66358231 38.93762229 -76.65577099 36.36540408 -76.64331055 33.79321289 C-76.62496699 29.86793562 -76.62280193 25.94289397 -76.62304688 22.01757812 C-76.61813355 19.50520631 -76.61230604 16.99283607 -76.60546875 14.48046875 C-76.60435593 13.31573532 -76.6032431 12.15100189 -76.60209656 10.95097351 C-76.56821863 5.11715203 -76.46611643 -0.56084463 -75.4375 -6.3125 C-59.27816471 -22.23650517 -14.64339133 -12.39056189 0 0 Z " fill="#0197B2" transform="translate(1073.4375,1229.3125)"/>
<path d="M0 0 C6.64870179 5.95503802 12.21235653 15.07906723 13.23828125 24.09375 C13.56231846 34.59937744 9.94960958 43.19906324 3 51 C1.67733757 52.34391951 0.34632644 53.67978765 -1 55 C-0.33613281 55.90621094 0.32773438 56.81242187 1.01171875 57.74609375 C14.63762389 76.47978148 14.63762389 76.47978148 14 83 C11.81466208 88.05359394 8.08105954 91.19353982 3.09765625 93.3359375 C-2.60246545 95.1404453 -6.67372522 94.4080155 -12 92.0625 C-21.78157206 86.64318154 -26.82911058 77.40856638 -32.32006836 68.0324707 C-32.76874268 67.26894287 -33.21741699 66.50541504 -33.6796875 65.71875 C-34.07913574 65.02716797 -34.47858398 64.33558594 -34.89013672 63.62304688 C-35.9172534 61.83892386 -35.9172534 61.83892386 -38 61 C-37.98839844 62.03898437 -37.97679687 63.07796875 -37.96484375 64.1484375 C-37.92884757 68.43301123 -37.95560744 72.71560168 -38 77 C-38.00386719 78.03898437 -38.00773437 79.07796875 -38.01171875 80.1484375 C-38.19571956 84.3741113 -38.44513795 86.35266094 -41.25 89.625 C-47.61706907 91.95959199 -54.26998276 92.49637587 -60.66796875 89.9296875 C-67.77279812 85.57396296 -72.06368725 79.06796978 -74 71 C-75.05081508 63.49635441 -75.14663688 56.02140872 -75.1328125 48.45703125 C-75.13376923 47.28919601 -75.13472595 46.12136078 -75.13571167 44.9181366 C-75.13638841 42.46503648 -75.13456967 40.01193451 -75.13037109 37.55883789 C-75.12500111 33.8132729 -75.13034082 30.06782701 -75.13671875 26.32226562 C-75.13605816 23.92968724 -75.1347774 21.53710892 -75.1328125 19.14453125 C-75.13483673 18.03084671 -75.13686096 16.91716217 -75.13894653 15.76972961 C-75.09537139 1.27793329 -75.09537139 1.27793329 -72.125 -2.1875 C-52.32939994 -13.66894804 -18.60630569 -14.85058843 0 0 Z " fill="#0297B2" transform="translate(1172,1432)"/>
<path d="M0 0 C4.6626762 2.34764116 6.51738325 6.25205882 8.25 11 C8.7884639 14.39859293 8.80827753 17.73187246 8.7890625 21.16796875 C8.80085541 22.12463943 8.81264832 23.08131012 8.82479858 24.06697083 C8.85986941 27.10731403 8.86920069 30.14697178 8.875 33.1875 C8.89677258 37.18116665 8.93061146 41.17450757 8.9765625 45.16796875 C8.98689514 46.11896454 8.99722778 47.06996033 9.00787354 48.04977417 C9.13015798 55.18264312 9.79546287 62.00098159 11.25 69 C11.91153076 69.10546143 12.57306152 69.21092285 13.25463867 69.31958008 C14.83251953 69.5711263 16.41040039 69.82267253 17.98828125 70.07421875 C20.25790586 70.18920635 20.25790586 70.18920635 21.91796875 68.95703125 C32.02286691 54.1108319 26.97647707 20.95647121 25.25 4 C33.2168237 -1.48825633 40.796121 -2.10940816 50.25 -1 C55.2726384 0.56200015 58.30990505 2.89117006 61.6875 6.875 C64.81994695 13.13989389 65.55158855 18.8556316 65.515625 25.72265625 C65.51753845 26.54519394 65.5194519 27.36773163 65.52142334 28.2151947 C65.52277834 29.95067654 65.51912996 31.68616876 65.51074219 33.42163086 C65.50012944 36.03067831 65.51061068 38.63902196 65.5234375 41.24804688 C65.54902833 67.13933442 65.54902833 67.13933442 60.375 76.5625 C59.88257813 77.49191406 59.39015625 78.42132812 58.8828125 79.37890625 C51.47925259 91.26356822 40.05186882 96.24726569 26.828125 99.6171875 C10.39951344 102.0565874 -5.43715837 99.33798347 -19 89.6875 C-30.71862569 78.23520671 -31.79125939 62.53668716 -31.98583984 47.02905273 C-32.03540877 34.23770587 -31.4203604 21.6798362 -29.75 9 C-29.52763672 7.05673828 -29.52763672 7.05673828 -29.30078125 5.07421875 C-28.75 2 -28.75 2 -26.875 0.125 C-19.36070881 -3.85315416 -7.6967356 -3.42844127 0 0 Z " fill="#0298B2" transform="translate(923.75,1220)"/>
<path d="M0 0 C14.43332956 13.83777955 17.77000634 39.12932539 22.82797241 57.79711914 C23.18874402 59.12628828 23.55151344 60.45491699 23.91641235 61.78295898 C29.21554875 81.11377906 29.21554875 81.11377906 27.11279297 85.35327148 C22.87421396 91.42020795 15.89828246 93.41698152 8.91796875 94.7265625 C3.26085579 95.15056702 -0.65268059 92.74665312 -4.875 89.3125 C-8.27261798 85.64664903 -10.875 82.40366529 -10.875 77.3125 C-17.475 77.3125 -24.075 77.3125 -30.875 77.3125 C-31.32875 79.230625 -31.7825 81.14875 -32.25 83.125 C-33.11947923 86.80052585 -33.76455618 89.14683427 -35.875 92.3125 C-42.06574463 94.81514144 -49.57330972 95.77808509 -55.99609375 93.58984375 C-60.83217866 91.02099864 -63.92158486 87.6736653 -65.95703125 82.6328125 C-72.31245176 59.64512128 -59.47222413 31.59390416 -52.1875 10.25 C-51.77794067 9.02821045 -51.77794067 9.02821045 -51.36010742 7.78173828 C-49.74914257 3.16995656 -48.09072015 -0.92625589 -44.875 -4.6875 C-30.47841717 -10.79980085 -12.46299875 -9.55133747 0 0 Z " fill="#0297B2" transform="translate(1065.875,1430.6875)"/>
<path d="M0 0 C1.58530518 -0.00821777 1.58530518 -0.00821777 3.20263672 -0.01660156 C14.86406686 0.08919586 27.66491255 1.66491255 36.3125 10.3125 C42.16559874 18.51016386 43.11750682 25.23873406 42.3125 35.3125 C40.70244053 40.88645588 37.13843657 45.06145937 33.3125 49.3125 C33.869375 49.374375 34.42625 49.43625 35 49.5 C39.73817157 51.16476298 43.26655471 55.68899658 45.578125 60.046875 C48.37480603 68.6749335 46.66175409 77.69808058 42.84765625 85.6875 C37.76899908 94.37161607 30.35987796 98.04600659 20.98046875 101.0625 C8.47377494 104.13058162 -6.62432027 103.88992995 -17.9375 97.5625 C-26.84781673 91.83838012 -30.773303 83.83042444 -33.25816345 73.69766235 C-34.07047809 69.18488026 -33.95054399 64.65783982 -33.91796875 60.0859375 C-33.91728142 58.48801865 -33.91728142 58.48801865 -33.9165802 56.8578186 C-33.91357038 54.61044192 -33.90572236 52.36306708 -33.89331055 50.11572266 C-33.87516824 46.7189981 -33.87280048 43.32254902 -33.87304688 39.92578125 C-33.83339453 13.1118088 -33.83339453 13.1118088 -32.6875 7.3125 C-29.9406596 4.62808779 -29.18076196 4.22456328 -25.6875 3.3125 C-24.87023437 3.02246094 -24.05296875 2.73242188 -23.2109375 2.43359375 C-15.53968589 0.12808282 -7.95914955 0.03029394 0 0 Z " fill="#0197B2" transform="translate(842.6875,1422.6875)"/>
<path d="M0 0 C0.624 11.68266667 0.624 11.68266667 -1.6875 16.5625 C-6.2225506 21.34268848 -10.28955337 24.65662165 -17.08984375 25.15234375 C-22.51860771 25.24069615 -22.51860771 25.24069615 -25 24 C-30.55531248 23.4927035 -35.41830236 23.23739578 -40.5 25.6875 C-45.50475266 30.25137054 -45.50475266 30.25137054 -47.49609375 36.55859375 C-47.47675781 37.83863281 -47.45742187 39.11867188 -47.4375 40.4375 C-47.43556641 42.35369141 -47.43556641 42.35369141 -47.43359375 44.30859375 C-46.86893861 49.11579292 -45.59538704 52.4012329 -42.15625 55.84765625 C-39.46366826 57.28662657 -37.54452056 57.43331797 -34.5 57.4375 C-33.09234375 57.46650391 -33.09234375 57.46650391 -31.65625 57.49609375 C-28.186965 56.84815376 -27.07188527 55.83471576 -25 53 C-24.27195982 49.918239 -23.9988432 46.92580186 -23.6875 43.77734375 C-23 41 -23 41 -21.421875 39.16015625 C-18.06191782 37.55062838 -14.90435201 37.46750749 -11.25 37.5 C-10.53424805 37.50427002 -9.81849609 37.50854004 -9.08105469 37.51293945 C-1.59168835 37.7543393 2.16185039 40.03400581 7.16796875 45.265625 C10.58890636 50.37150204 9.70885525 56.09909096 9 62 C6.42500716 71.62773873 1.39229793 79.29196726 -6.9375 84.8125 C-20.19722065 92.42978633 -37.00088315 92.96613427 -51.82421875 90.31640625 C-54.70746013 89.40809099 -57.30147034 88.35769774 -60 87 C-61.3303125 86.34644531 -61.3303125 86.34644531 -62.6875 85.6796875 C-73.215035 79.94594076 -78.21333103 71.74407122 -83 61 C-83.54720703 59.79923828 -83.54720703 59.79923828 -84.10546875 58.57421875 C-88.46708726 46.02266155 -86.67739959 31.16951753 -82 19 C-80.02060585 15.30179017 -77.73009945 12.17571485 -75 9 C-74.15695312 7.95779297 -74.15695312 7.95779297 -73.296875 6.89453125 C-54.67737997 -14.03216208 -22.60807699 -13.51287361 0 0 Z " fill="#0297B2" transform="translate(1522,1433)"/>
<path d="M0 0 C1.0620314 -0.00315216 2.12406281 -0.00630432 3.21827698 -0.009552 C4.92768715 -0.00651566 4.92768715 -0.00651566 6.67163086 -0.00341797 C7.85687851 -0.00437469 9.04212616 -0.00533142 10.26329041 -0.00631714 C12.77236992 -0.00699732 15.28145121 -0.00515434 17.79052734 -0.00097656 C21.59794159 0.00434072 25.40523607 -0.00090987 29.21264648 -0.00732422 C31.6573082 -0.00666276 34.10196984 -0.0053802 36.54663086 -0.00341797 C37.67206802 -0.0054422 38.79750519 -0.00746643 39.95704651 -0.009552 C47.20886768 0.01153367 54.35742401 0.41646435 61.57397461 1.12939453 C64.26424287 7.57358775 64.60068559 13.71938922 62.44897461 20.44189453 C60.65157546 24.61894889 58.34515775 26.61527243 54.57397461 29.12939453 C50.41544763 30.78143182 46.98096064 31.37070367 42.51928711 31.32470703 C41.41069336 31.31826172 40.30209961 31.31181641 39.15991211 31.30517578 C38.01780273 31.28841797 36.87569336 31.27166016 35.69897461 31.25439453 C33.95100586 31.24085937 33.95100586 31.24085937 32.16772461 31.22705078 C29.30292884 31.20356885 26.43855926 31.17072594 23.57397461 31.12939453 C23.57397461 32.77939453 23.57397461 34.42939453 23.57397461 36.12939453 C24.23405518 36.12415771 24.89413574 36.1189209 25.57421875 36.11352539 C28.59496083 36.09260502 31.61568761 36.07968673 34.63647461 36.06689453 C35.67481445 36.05851562 36.7131543 36.05013672 37.78295898 36.04150391 C49.23590317 36.00514535 49.23590317 36.00514535 53.57397461 37.12939453 C56.16266169 40.16022652 55.8731089 43.71311509 55.88647461 47.56689453 C55.90323242 48.67935547 55.91999023 49.79181641 55.93725586 50.93798828 C55.51988096 54.60460436 54.91122768 56.27804099 52.57397461 59.12939453 C46.62463432 63.72625667 41.46676324 63.62739389 34.13647461 63.37939453 C33.11875977 63.36134766 32.10104492 63.34330078 31.05249023 63.32470703 C28.55865806 63.2778745 26.06682414 63.21230881 23.57397461 63.12939453 C23.57397461 65.10939453 23.57397461 67.08939453 23.57397461 69.12939453 C34.79397461 69.12939453 46.01397461 69.12939453 57.57397461 69.12939453 C62.88166692 79.74477915 62.88166692 79.74477915 60.51147461 87.69189453 C56.78175061 94.30914679 52.01745604 97.48385535 44.78710938 99.52734375 C38.56970313 100.69231023 32.29629526 100.6094722 25.98803711 100.57543945 C23.57831827 100.56690991 21.17096178 100.59580217 18.76147461 100.62744141 C9.3882115 100.66989294 0.4181789 100.60096772 -6.86352539 93.87939453 C-11.72433737 85.32436544 -11.84400046 77.89824327 -11.75415039 68.21923828 C-11.7510841 66.76445207 -11.74921461 65.30966291 -11.74847412 63.85487366 C-11.74388786 60.81125561 -11.72953895 57.76790457 -11.70727539 54.72436523 C-11.6791721 50.86754202 -11.66807839 47.01092952 -11.66359329 43.15401363 C-11.65837332 39.4257293 -11.64388424 35.69749492 -11.62915039 31.96923828 C-11.62726967 31.27944319 -11.62538895 30.58964809 -11.62345123 29.87895012 C-11.58957237 20.25174601 -11.17122675 10.72356652 -10.42602539 1.12939453 C-6.88892719 0.32419048 -3.62464633 0.00310156 0 0 Z " fill="#0298B2" transform="translate(1105.426025390625,1217.87060546875)"/>
<path d="M0 0 C4.28690999 4.0385096 7.79579875 7.6312655 8.3125 13.625 C8.23388536 18.42922818 6.79202483 22.10834693 4 26 C1.0625 28.5625 1.0625 28.5625 -2 30 C-6.73290266 29.49484619 -10.36915681 27.37657821 -14.5 25.15625 C-18.65293474 23.23551768 -22.58639638 22.8471988 -27.125 22.8125 C-27.97320313 22.79832031 -28.82140625 22.78414062 -29.6953125 22.76953125 C-32.27674624 22.84566317 -32.27674624 22.84566317 -35 25 C-35 26.32 -35 27.64 -35 29 C-31.03096344 30.0033088 -27.06408801 30.99456818 -23.0703125 31.89453125 C-10.87345338 34.69243712 1.16304616 38.41880667 8.5703125 49.30859375 C12.85422209 56.76259644 14.56016682 64.08028131 12.31640625 72.59375 C8.7769727 82.11056719 3.27380209 89.50883013 -6 94 C-14.04075504 97.25653494 -21.7828384 97.48642017 -30.375 97.4375 C-31.6125 97.45748047 -32.85 97.47746094 -34.125 97.49804688 C-46.02705695 97.49178263 -57.55319351 94.61839233 -67 87 C-70.99483167 81.70328122 -70.78756179 76.38703953 -70 70 C-67.98603122 65.90013499 -65.80535629 63.45574181 -62 61 C-56.11967474 59.70048061 -51.21444129 61.15827176 -45.8125 63.5 C-38.43705514 66.60822319 -31.90420908 66.71577573 -24 66 C-23.34 65.67 -22.68 65.34 -22 65 C-22 63.02 -22 61.04 -22 59 C-25.58165416 57.34585052 -28.97875951 56.61508078 -32.87548828 56.06347656 C-43.7426864 54.50582057 -54.0092465 51.41453018 -61.59765625 42.97265625 C-66.31365769 36.33872665 -68.21667368 29.05262371 -67 21 C-64.65444936 11.86761938 -59.02540206 4.24640662 -51.1015625 -0.90234375 C-36.15301232 -8.71004375 -14.62826738 -9.0020107 0 0 Z " fill="#0298B2" transform="translate(788,1222)"/>
<path d="M0 0 C0.67343445 -0.00014603 1.3468689 -0.00029205 2.04071045 -0.0004425 C4.26455924 0.00025364 6.48832406 0.00803207 8.7121582 0.01586914 C10.25486709 0.01773438 11.79757657 0.01915778 13.34028625 0.02015686 C17.39927813 0.0239737 21.45823418 0.03379688 25.51721191 0.04486084 C29.65966304 0.05509287 33.80211996 0.05965832 37.94458008 0.06469727 C46.07154964 0.07541989 54.19849009 0.09248632 62.32543945 0.11352539 C65.98971616 7.08737342 66.85473891 13.89252993 64.59887695 21.59399414 C62.66059221 25.79361109 60.36280577 28.72780893 56.32543945 31.11352539 C51.26162458 32.97239414 46.70972154 33.14326848 41.32543945 33.11352539 C41.3411499 35.02476196 41.3411499 35.02476196 41.35717773 36.97460938 C41.3938803 41.78496393 41.41651923 46.59530663 41.43530273 51.40576172 C41.44524751 53.47218927 41.45880809 55.53860318 41.47631836 57.60498047 C41.55953813 67.69170613 41.60141053 77.78192845 40.69262695 87.83618164 C40.64816437 88.52272324 40.60370178 89.20926483 40.55789185 89.91661072 C40.12686646 93.78619309 39.46636391 94.99560001 36.43676758 97.53076172 C31.14501524 100.22272895 26.10874721 100.05269503 20.32543945 99.11352539 C17.10095011 97.58506666 14.79396422 95.66780536 12.32543945 93.11352539 C11.58293945 92.37102539 10.84043945 91.62852539 10.07543945 90.86352539 C2.06696647 78.27878214 3.18621955 64.31922367 3.26293945 49.98852539 C3.26796508 48.34790176 3.2725261 46.70727663 3.27661133 45.06665039 C3.2875314 41.08223798 3.30473727 37.0978985 3.32543945 33.11352539 C2.73529053 33.13970947 2.1451416 33.16589355 1.53710938 33.19287109 C-1.137343 33.29681763 -3.8113712 33.36183819 -6.48706055 33.42602539 C-7.41583008 33.46791992 -8.34459961 33.50981445 -9.30151367 33.55297852 C-11.84378308 33.59886786 -14.17212365 33.56602635 -16.67456055 33.11352539 C-19.51927891 30.34768092 -19.63451338 28.47120156 -20.07299805 24.55493164 C-20.06526367 23.27489258 -20.0575293 21.99485352 -20.04956055 20.67602539 C-20.05729492 19.39856445 -20.0650293 18.12110352 -20.07299805 16.80493164 C-19.46993562 11.2177356 -17.53373928 7.34763791 -13.17456055 3.80102539 C-12.58674805 3.30989258 -11.99893555 2.81875977 -11.39331055 2.31274414 C-7.73589032 -0.2391377 -4.31326693 -0.00785659 0 0 Z " fill="#0197B2" transform="translate(821.674560546875,1218.886474609375)"/>
<path d="M0 0 C0.66861557 -0.00817749 1.33723114 -0.01635498 2.02610779 -0.02478027 C4.23549511 -0.0495659 6.44481872 -0.06612806 8.65429688 -0.08056641 C9.409048 -0.08589008 10.16379913 -0.09121376 10.94142151 -0.09669876 C14.93245426 -0.12339413 18.92345604 -0.1427849 22.91455078 -0.15722656 C26.22049451 -0.17059478 29.5258252 -0.19850384 32.83154297 -0.23925781 C36.82267534 -0.28846014 40.81324951 -0.31333112 44.80467224 -0.32045364 C46.32618812 -0.32718119 47.84769081 -0.34244238 49.36903381 -0.36634445 C51.49538735 -0.3978597 53.61956939 -0.39805598 55.74609375 -0.390625 C57.56119446 -0.40275528 57.56119446 -0.40275528 59.41296387 -0.41513062 C62.37304688 0.19287109 62.37304688 0.19287109 64.26013184 2.5249939 C66.7021826 8.37907199 66.36914378 15.69582121 64.64648438 21.74365234 C62.21326048 26.99585513 58.91456495 30.03763561 53.62304688 32.44287109 C50.75956784 33.10367395 48.57392317 33.27142611 45.66992188 33.23974609 C44.86393555 33.23297852 44.05794922 33.22621094 43.22753906 33.21923828 C42.30956543 33.20618652 42.30956543 33.20618652 41.37304688 33.19287109 C41.3774881 33.77787888 41.38192932 34.36288666 41.38650513 34.96562195 C41.43113032 41.11499562 41.46107401 47.26432248 41.48291016 53.41381836 C41.49289976 55.70159782 41.50649605 57.98936474 41.52392578 60.27709961 C41.76061442 92.16741345 41.76061442 92.16741345 37.98681641 96.94946289 C33.39155529 100.4901081 26.83848116 99.79011042 21.37304688 99.19287109 C14.23275986 96.65883889 9.82220368 90.80417415 6.37304688 84.31005859 C0.29184866 69.39942837 3.26395306 48.87813687 3.37304688 33.19287109 C-3.22695312 33.19287109 -9.82695313 33.19287109 -16.62695312 33.19287109 C-20.35046071 25.74585592 -21.0608258 18.88068968 -18.56445312 10.81787109 C-16.70063605 6.54625205 -13.47549835 3.72066557 -9.62695312 1.19287109 C-6.22886366 0.06017461 -3.58369741 0.038087 0 0 Z " fill="#0197B2" transform="translate(1295.626953125,1218.80712890625)"/>
<path d="M0 0 C6.20374901 3.49773278 9.46346015 8.86250599 11.53686523 15.52636719 C12.90966838 21.17450682 12.75550565 26.80802762 12.71875 32.58984375 C12.71829178 33.78118423 12.71783356 34.97252472 12.71736145 36.19996643 C12.71434874 38.7172241 12.70649194 41.23448006 12.6940918 43.75170898 C12.67598958 47.55003694 12.67358143 51.34811801 12.67382812 55.14648438 C12.66514502 62.15075798 12.60233683 69.15291116 12.48828125 76.15625 C12.47396057 77.0868927 12.45963989 78.0175354 12.44488525 78.97637939 C12.3969436 81.36222502 12.32001291 83.74446606 12.2265625 86.12890625 C12.18184814 87.390979 12.13713379 88.65305176 12.09106445 89.95336914 C11.3794587 93.73447726 10.20189216 95.46553354 7.48828125 98.15625 C2.00522994 99.98393377 -4.4422551 100.31983753 -9.90234375 98.25 C-17.12136207 93.95165321 -21.07010259 88.12480542 -23.51171875 80.15625 C-24.04382576 77.31644897 -24.43939112 74.64383889 -24.69921875 71.78125 C-24.77889893 70.93127441 -24.8585791 70.08129883 -24.94067383 69.20556641 C-25.76412182 58.66790869 -25.69614935 48.09430637 -25.69921875 37.53125 C-25.70021576 36.61015442 -25.70121277 35.68905884 -25.70223999 34.74005127 C-25.69888608 7.31052406 -25.69888608 7.31052406 -22.51171875 2.15625 C-15.8755003 -2.07554147 -7.44057679 -2.49947836 0 0 Z " fill="#0298B2" transform="translate(1313.51171875,1424.84375)"/>
<path d="M0 0 C4.78346332 2.48740092 7.40737188 5.29486008 10 10 C12.22138247 18.95957597 11.73360672 27.02299609 7 35 C3.76761944 40.10280302 0.53887883 44.28707976 -5 47 C-9.33823043 47.6197472 -11.37930088 47.3342226 -15.25 45.25 C-20.05078705 41.32208332 -22.53991042 37.295834 -23.40625 31.08984375 C-23.6966016 21.32677114 -21.43767675 13.74244182 -14.66796875 6.5078125 C-6.7818698 -0.65210287 -6.7818698 -0.65210287 0 0 Z " fill="#F7F7F7" transform="translate(1318,1595)"/>
<path d="M0 0 C4.549012 2.14071153 7.28557325 4.79534226 9.30078125 9.3359375 C11.34057622 17.10767029 11.33400919 26.21839238 7.9375 33.5625 C4.56440886 39.24500866 0.19379979 44.40611907 -6 47 C-10.09035523 47.45448391 -12.44699211 47.26023901 -16.1875 45.5 C-21.02930766 41.19617097 -22.69690774 37.72783038 -23.41796875 31.23828125 C-23.83372188 23.09878021 -23.14487557 16.60070575 -18 10 C-17.59265625 9.42894531 -17.1853125 8.85789062 -16.765625 8.26953125 C-12.24718141 2.32807134 -7.60449855 -1.08635694 0 0 Z " fill="#F9F9F9" transform="translate(1427,1595)"/>
<path d="M0 0 C4.549012 2.14071153 7.28557325 4.79534226 9.30078125 9.3359375 C11.34057622 17.10767029 11.33400919 26.21839238 7.9375 33.5625 C4.56440886 39.24500866 0.19379979 44.40611907 -6 47 C-10.09035523 47.45448391 -12.44699211 47.26023901 -16.1875 45.5 C-21.02930766 41.19617097 -22.69690774 37.72783038 -23.41796875 31.23828125 C-23.83372188 23.09878021 -23.14487557 16.60070575 -18 10 C-17.59265625 9.42894531 -17.1853125 8.85789062 -16.765625 8.26953125 C-12.24718141 2.32807134 -7.60449855 -1.08635694 0 0 Z " fill="#F9F9F9" transform="translate(1233,1595)"/>
<path d="M0 0 C5.05447688 2.52723844 7.8802255 5.81853707 10 11 C10.5638869 13.97970796 10.62089305 16.84845302 10.5625 19.875 C10.5471521 21.06863159 10.5471521 21.06863159 10.53149414 22.28637695 C10.19025546 31.71635804 6.36840672 37.12047104 -0.25390625 43.58984375 C-3.21247017 45.9791985 -5.54128506 46.93076001 -9.3125 47.5 C-14.21598854 46.8351202 -16.86868727 44.76687621 -20 41 C-24.08541454 34.26097507 -23.83491082 27.66527648 -23 20 C-20.5496017 11.7666617 -15.1499716 6.13778341 -8.4375 1.0625 C-5.30806174 -0.30161411 -3.38758535 -0.48394076 0 0 Z " fill="#FAFAFA" transform="translate(820,1595)"/>
<path d="M0 0 C5.83452926 0.09555012 9.14476689 0.15881465 13.25 4.375 C16.85822218 9.42651105 16.98872076 14.39807747 16.25 20.375 C14.25632342 29.58388705 10.79721983 36.61868723 2.890625 41.97265625 C-2.63353239 45.05211666 -7.45595887 46.35379773 -13.75 45.375 C-16.8125 44.375 -16.8125 44.375 -18.75 43.375 C-18.16327786 37.89561833 -17.21377125 32.75378998 -15.75390625 27.4453125 C-15.56030014 26.72890594 -15.36669403 26.01249939 -15.16722107 25.27438354 C-14.76062271 23.77625182 -14.3512552 22.27886908 -13.93920898 20.78222656 C-13.30904229 18.48740837 -12.69216347 16.18928358 -12.07617188 13.890625 C-11.6778746 12.42947158 -11.27881352 10.9685261 -10.87890625 9.5078125 C-10.69550186 8.82139679 -10.51209747 8.13498108 -10.32313538 7.42776489 C-8.46484812 0.75681372 -6.80396255 0.07177176 0 0 Z " fill="#101010" transform="translate(1059.75,1595.625)"/>
<path d="M0 0 C2.89809389 -0.16250994 5.78704851 -0.28107636 8.6875 -0.375 C9.50412109 -0.42527344 10.32074219 -0.47554687 11.16210938 -0.52734375 C17.13468905 -0.67242666 17.13468905 -0.67242666 19.66259766 1.29199219 C23.79695253 6.18656848 24.3546573 9.65839807 24.2734375 15.85546875 C23.56254495 24.03073311 20.8215781 31.39816045 15.046875 37.30859375 C9.27670293 42.07669395 3.53177929 44.6343658 -3.9921875 44.2734375 C-6.04890522 43.99333976 -7.99901122 43.54735567 -10 43 C-10.19477525 37.35191127 -9.63191948 32.51911073 -8.06640625 27.0703125 C-7.77031715 25.99570267 -7.77031715 25.99570267 -7.46824646 24.89938354 C-6.84252805 22.63847554 -6.20253222 20.38189218 -5.5625 18.125 C-5.13647693 16.588789 -4.71133868 15.05233232 -4.28710938 13.515625 C-1.1942369 2.38847379 -1.1942369 2.38847379 0 0 Z " fill="#0B0B0B" transform="translate(843,1597)"/>
<path d="M0 0 C0.99 0.33 1.98 0.66 3 1 C3.92972557 10.69570954 4.11237377 20.27342548 4 30 C4.66 30 5.32 30 6 30 C6.11931885 29.28739014 6.2386377 28.57478027 6.36157227 27.84057617 C7.02786163 24.8760344 8.00673789 22.33668259 9.21484375 19.55078125 C9.65376953 18.53822266 10.09269531 17.52566406 10.54492188 16.48242188 C11.00447266 15.43634766 11.46402344 14.39027344 11.9375 13.3125 C12.39318359 12.25482422 12.84886719 11.19714844 13.31835938 10.10742188 C16.74558 2.25442 16.74558 2.25442 19 0 C19.99 0 20.98 0 22 0 C23.40386319 2.80772638 23.31022985 5.33584807 23.5 8.46875 C23.62375 10.40814453 23.62375 10.40814453 23.75 12.38671875 C23.87599153 14.44736933 24.00048983 16.5081071 24.125 18.56884766 C24.24653015 20.5565303 24.37318985 22.54389723 24.5 24.53125 C24.5721875 25.72298828 24.644375 26.91472656 24.71875 28.14257812 C24.82249666 30.94286806 24.82249666 30.94286806 26 33 C26.25692627 32.24380371 26.51385254 31.48760742 26.77856445 30.70849609 C27.9521526 27.26248417 29.13225999 23.81873907 30.3125 20.375 C30.71662109 19.18519531 31.12074219 17.99539063 31.53710938 16.76953125 C32.13168945 15.03896484 32.13168945 15.03896484 32.73828125 13.2734375 C33.09962158 12.21560059 33.46096191 11.15776367 33.83325195 10.06787109 C35.02914591 6.92336316 36.44650214 3.98193425 38 1 C39.32 1 40.64 1 42 1 C41.35050426 6.7449445 39.94669105 12.04295853 38.25 17.5625 C37.98413086 18.43640381 37.71826172 19.31030762 37.44433594 20.21069336 C31.38035805 39.92946292 31.38035805 39.92946292 28 45 C25.0625 45.4375 25.0625 45.4375 22 45 C19.03577651 41.98344857 18.55601999 39.50244296 18.26953125 35.359375 C18.18896484 34.28945312 18.10839844 33.21953125 18.02539062 32.1171875 C17.95513672 31.00601562 17.88488281 29.89484375 17.8125 28.75 C17.73064453 27.62335938 17.64878906 26.49671875 17.56445312 25.3359375 C17.36434076 22.55790707 17.17665901 19.77960418 17 17 C16.62488281 17.97839844 16.24976563 18.95679688 15.86328125 19.96484375 C12.56868006 28.44595245 9.06657172 36.40014242 4 44 C2.68 44 1.36 44 0 44 C-4.00333782 35.99332435 -2.1194216 23.46338311 -2.0625 14.75 C-2.05746786 13.40755378 -2.05290802 12.0651057 -2.04882812 10.72265625 C-2.03717009 7.4817219 -2.02080774 4.24088631 -2 1 C-1.34 0.67 -0.68 0.34 0 0 Z " fill="#0B0B0B" transform="translate(1447,1596)"/>
<path d="M0 0 C1.65 0 3.3 0 5 0 C8.25291624 7.89993945 11 16.40495762 11 25 C14.89977762 21.52450375 17.33584167 17.49065408 20 13.0625 C25.90794414 3.2964893 25.90794414 3.2964893 29 0 C32.25 -0.3125 32.25 -0.3125 35 0 C36.25562269 4.01799261 35.60479809 6.74330626 34.54785156 10.73925781 C33.61837087 14.57481539 33.12183192 18.47148508 32.5625 22.375 C31.55574569 29.10999686 30.32921651 35.57400552 28 42 C25.525 42.495 25.525 42.495 23 43 C22.74354105 36.26795268 23.71837452 30.0986393 25 23.5 C25.19078125 22.48679687 25.3815625 21.47359375 25.578125 20.4296875 C26.04564611 17.95182561 26.51973328 15.47541732 27 13 C26.53944214 13.77863403 26.53944214 13.77863403 26.06958008 14.57299805 C24.65820689 16.94914089 23.23548482 19.31829422 21.8125 21.6875 C21.32974609 22.50412109 20.84699219 23.32074219 20.34960938 24.16210938 C17.61366992 28.69752578 14.94716461 32.45693268 11 36 C9.10546875 35.32421875 9.10546875 35.32421875 7 34 C5.98828125 31.64453125 5.98828125 31.64453125 5.3125 28.8125 C5.07402344 27.83152344 4.83554688 26.85054687 4.58984375 25.83984375 C3.90991896 22.56629857 3.43222556 19.3137293 3 16 C2.67 15.67 2.34 15.34 2 15 C1.86424561 15.56396484 1.72849121 16.12792969 1.58862305 16.70898438 C0.96006651 19.30726632 0.32383379 21.90361227 -0.3125 24.5 C-0.52583984 25.386875 -0.73917969 26.27375 -0.95898438 27.1875 C-2.3005511 32.63386043 -3.92382345 37.7882489 -6 43 C-7.65 43 -9.3 43 -11 43 C-10.66278848 33.94967793 -8.08458912 25.60136932 -5.5 17 C-5.07865341 15.56923803 -4.65807482 14.13824965 -4.23828125 12.70703125 C-1.19042633 2.38085265 -1.19042633 2.38085265 0 0 Z " fill="#0B0B0B" transform="translate(1256,1597)"/>
<path d="M0 0 C2.40777323 2.88932788 2.96115399 4.69478136 3.4375 8.4375 C2.81515735 13.50514728 0.73705209 16.47349968 -3.0625 19.8125 C-5 21 -5 21 -8 22 C-7.54636829 23.58468677 -7.08688548 25.16769924 -6.625 26.75 C-6.24214844 28.07257813 -6.24214844 28.07257813 -5.8515625 29.421875 C-5.07832475 31.97906246 -5.07832475 31.97906246 -3.90625 34.15625 C-2.74419018 36.52044067 -2.85564759 38.40165653 -3 41 C-4.98 41.495 -4.98 41.495 -7 42 C-14 28.48275862 -14 28.48275862 -14 23 C-16.64 22.67 -19.28 22.34 -22 22 C-22.268125 23.27875 -22.53625 24.5575 -22.8125 25.875 C-23.9451896 31.00062417 -25.43201301 35.99289488 -27 41 C-28.32 41 -29.64 41 -31 41 C-30.67051799 32.92769063 -28.99069081 25.69744353 -26.60888672 17.99755859 C-25.93668688 15.79229032 -25.29622118 13.57923467 -24.66015625 11.36328125 C-24.21096367 9.80467996 -23.76174531 8.2460861 -23.3125 6.6875 C-22.99104004 5.56577393 -22.99104004 5.56577393 -22.66308594 4.42138672 C-21.11329666 -0.88670334 -21.11329666 -0.88670334 -20 -2 C-12.68658573 -3.31641457 -6.44148929 -4.24552703 0 0 Z " fill="#0E0E0E" transform="translate(1397,1599)"/>
<path d="M0 0 C2.40777323 2.88932788 2.96115399 4.69478136 3.4375 8.4375 C2.81515735 13.50514728 0.73705209 16.47349968 -3.0625 19.8125 C-5 21 -5 21 -8 22 C-7.54636829 23.58468677 -7.08688548 25.16769924 -6.625 26.75 C-6.24214844 28.07257813 -6.24214844 28.07257813 -5.8515625 29.421875 C-5.07832475 31.97906246 -5.07832475 31.97906246 -3.90625 34.15625 C-2.74419018 36.52044067 -2.85564759 38.40165653 -3 41 C-4.98 41.495 -4.98 41.495 -7 42 C-14 28.48275862 -14 28.48275862 -14 23 C-16.64 22.67 -19.28 22.34 -22 22 C-22.268125 23.27875 -22.53625 24.5575 -22.8125 25.875 C-23.9451896 31.00062417 -25.43201301 35.99289488 -27 41 C-28.32 41 -29.64 41 -31 41 C-30.67051799 32.92769063 -28.99069081 25.69744353 -26.60888672 17.99755859 C-25.93668688 15.79229032 -25.29622118 13.57923467 -24.66015625 11.36328125 C-24.21096367 9.80467996 -23.76174531 8.2460861 -23.3125 6.6875 C-22.99104004 5.56577393 -22.99104004 5.56577393 -22.66308594 4.42138672 C-21.11329666 -0.88670334 -21.11329666 -0.88670334 -20 -2 C-12.68658573 -3.31641457 -6.44148929 -4.24552703 0 0 Z " fill="#0E0E0E" transform="translate(1362,1599)"/>
<path d="M0 0 C3.34898655 3.45364238 3.33748915 6.09560575 3.28515625 10.73828125 C2.8465413 14.31329353 1.34164608 16.3956253 -1 19.0625 C-3.67344514 20.84479676 -4.73770359 21.0625 -8 21.0625 C-6.10103734 26.97930517 -6.10103734 26.97930517 -3.8125 32.75 C-2.80893512 35.60630004 -2.86026285 38.05815137 -3 41.0625 C-4.32 41.0625 -5.64 41.0625 -7 41.0625 C-9.27476613 36.74828838 -11.07592478 32.92216933 -12.25 28.1875 C-12.84921421 25.92084108 -12.84921421 25.92084108 -14 24.0625 C-16.76318432 22.63970728 -18.8507136 22.42389352 -22 22.0625 C-22.103125 22.990625 -22.20625 23.91875 -22.3125 24.875 C-23.12435083 30.61678558 -24.39809114 36.85868227 -27 42.0625 C-28.32 41.7325 -29.64 41.4025 -31 41.0625 C-30.43550793 34.34300409 -29.11941853 28.26273016 -27.1875 21.8125 C-26.92050293 20.90024658 -26.65350586 19.98799316 -26.37841797 19.0480957 C-24.31687132 12.0335066 -22.19918169 5.0351996 -20 -1.9375 C-13.01897646 -3.07984931 -6.17017362 -3.9849038 0 0 Z " fill="#0F0F0F" transform="translate(624,1598.9375)"/>
<path d="M0 0 C1.875 0 1.875 0 4 1 C7.49217235 5.5217371 9.18167297 9.9203783 10.75 15.375 C10.97042969 16.11105469 11.19085937 16.84710937 11.41796875 17.60546875 C11.95429264 19.40098788 12.47842566 21.20014099 13 23 C13.33 23 13.66 23 14 23 C14.18175781 22.23816406 14.36351562 21.47632813 14.55078125 20.69140625 C16.09673563 14.34110136 17.84093336 8.16876182 20 2 C21.65 1.67 23.3 1.34 25 1 C23.95235421 15.40512962 19.48311175 29.34855725 15 43 C12.625 43.625 12.625 43.625 10 44 C7.56690457 41.56690457 7.61000543 40.52532175 7.21875 37.16796875 C7.09886719 36.20439453 6.97898437 35.24082031 6.85546875 34.24804688 C6.73816406 33.23806641 6.62085938 32.22808594 6.5 31.1875 C6.26660596 29.20108593 6.02721324 27.21536566 5.78125 25.23046875 C5.67876953 24.34770264 5.57628906 23.46493652 5.47070312 22.55541992 C5.07926029 19.94509323 5.07926029 19.94509323 3.95117188 17.4230957 C3 15 3 15 3 11 C2.34 11 1.68 11 1 11 C0.90332031 12.2271875 0.80664062 13.454375 0.70703125 14.71875 C0.02355818 20.82811347 -1.61086465 26.60670524 -3.3125 32.5 C-3.60833984 33.59570312 -3.90417969 34.69140625 -4.20898438 35.8203125 C-4.65661133 37.37878906 -4.65661133 37.37878906 -5.11328125 38.96875 C-5.51220581 40.38317383 -5.51220581 40.38317383 -5.91918945 41.82617188 C-7 44 -7 44 -9.05541992 44.87695312 C-9.69713135 44.91755859 -10.33884277 44.95816406 -11 45 C-11.33 44.67 -11.66 44.34 -12 44 C-11.4693703 37.79517009 -10.15504954 31.8553186 -8.6875 25.8125 C-8.46602295 24.89428467 -8.2445459 23.97606934 -8.01635742 23.0300293 C-3.15088027 3.15088027 -3.15088027 3.15088027 0 0 Z " fill="#0C0C0C" transform="translate(640,1596)"/>
<path d="M0 0 C2.4609375 0.07421875 2.4609375 0.07421875 5 1 C9.66196659 7.57361955 11.33475333 16.24238746 13 24 C13.33 24 13.66 24 14 24 C14.14099121 23.44538086 14.28198242 22.89076172 14.42724609 22.31933594 C15.07179223 19.79499554 15.72332156 17.27250811 16.375 14.75 C16.59671875 13.87730469 16.8184375 13.00460937 17.046875 12.10546875 C17.26601562 11.26113281 17.48515625 10.41679688 17.7109375 9.546875 C17.90993652 8.77182617 18.10893555 7.99677734 18.31396484 7.19824219 C19.00528748 4.98305749 19.90561849 3.04230304 21 1 C22.32 1 23.64 1 25 1 C25.28597349 6.89423146 24.25124076 11.93983109 22.75 17.625 C22.52401123 18.50148193 22.29802246 19.37796387 22.06518555 20.28100586 C17.0837884 39.3743174 17.0837884 39.3743174 14 44 C12.35 43.67 10.7 43.34 9 43 C7.34127182 36.24660671 6.4066681 29.5627317 5.66015625 22.6484375 C4.93764671 18.65539661 3.72340781 15.65343673 2 12 C1.83918945 12.6798999 1.67837891 13.3597998 1.51269531 14.06030273 C0.7674514 17.1882541 0.00882555 20.3128169 -0.75 23.4375 C-1.00265625 24.50677734 -1.2553125 25.57605469 -1.515625 26.67773438 C-3.09436049 33.13081568 -5.03520999 39.04853611 -8 45 C-8.99 45 -9.98 45 -11 45 C-11.34833804 37.56104756 -10.09655712 31.23387532 -8.1875 24.0625 C-7.79594727 22.53206055 -7.79594727 22.53206055 -7.39648438 20.97070312 C-6.62179625 17.97332958 -5.81955073 14.98539936 -5 12 C-4.73654785 11.0394873 -4.4730957 10.07897461 -4.20166016 9.08935547 C-3.8176001 7.74381592 -3.8176001 7.74381592 -3.42578125 6.37109375 C-3.19930908 5.57501709 -2.97283691 4.77894043 -2.73950195 3.95874023 C-2 2 -2 2 0 0 Z " fill="#0C0C0C" transform="translate(1102,1596)"/>
<path d="M0 0 C4.13090031 1.87322014 5.40364086 6.89354202 6.97265625 10.89453125 C8.14484779 14.86230659 9.11731971 18.84732907 9.97265625 22.89453125 C12.15573659 20.71145091 12.44851447 19.74704605 13.19140625 16.83203125 C13.50658203 15.63707031 13.50658203 15.63707031 13.828125 14.41796875 C14.14716797 13.16886719 14.14716797 13.16886719 14.47265625 11.89453125 C14.89344553 10.24707748 15.32026367 8.60114853 15.75390625 6.95703125 C15.94017578 6.22613281 16.12644531 5.49523438 16.31835938 4.7421875 C16.97265625 2.89453125 16.97265625 2.89453125 18.97265625 0.89453125 C21.09765625 1.26953125 21.09765625 1.26953125 22.97265625 1.89453125 C21.43056996 10.08649314 19.52673388 18.17636867 17.53515625 26.26953125 C17.23544922 27.52636719 16.93574219 28.78320312 16.62695312 30.078125 C16.32982422 31.28339844 16.03269531 32.48867187 15.7265625 33.73046875 C15.46174072 34.8189209 15.19691895 35.90737305 14.92407227 37.02880859 C13.98432331 39.85938936 12.90531768 41.64999698 10.97265625 43.89453125 C9.32265625 43.56453125 7.67265625 43.23453125 5.97265625 42.89453125 C5.89748779 42.31074707 5.82231934 41.72696289 5.74487305 41.12548828 C5.39183229 38.42231152 5.0260555 35.72099636 4.66015625 33.01953125 C4.54220703 32.10171875 4.42425781 31.18390625 4.30273438 30.23828125 C3.4321785 23.89884871 1.99016776 17.96604442 -0.02734375 11.89453125 C-2.53505672 17.4506109 -3.65441818 23.40779378 -4.99609375 29.32617188 C-6.35140984 35.00906369 -8.22588143 39.7624907 -11.02734375 44.89453125 C-12.01734375 44.89453125 -13.00734375 44.89453125 -14.02734375 44.89453125 C-14.40537041 37.88003647 -13.00755016 31.84176345 -11.21484375 25.08203125 C-10.95380859 24.06560547 -10.69277344 23.04917969 -10.42382812 22.00195312 C-9.89957109 19.97094254 -9.36694687 17.94207206 -8.82568359 15.91552734 C-8.28422316 13.86658808 -7.76436843 11.81184016 -7.26416016 9.75244141 C-7.01714355 8.76421387 -6.77012695 7.77598633 -6.515625 6.7578125 C-6.30075439 5.87005127 -6.08588379 4.98229004 -5.86450195 4.06762695 C-4.72668327 1.11407661 -3.24818036 -0.16898048 0 0 Z " fill="#0C0C0C" transform="translate(692.02734375,1596.10546875)"/>
<path d="M0 0 C2.06132142 -0.10864945 4.12431321 -0.18588321 6.1875 -0.25 C7.33605469 -0.29640625 8.48460937 -0.3428125 9.66796875 -0.390625 C13.63806268 0.07480219 15.16778557 1.25249211 18 4 C20.84387257 7.73741561 20.33076101 12.31663923 20.3125 16.8125 C20.32861328 17.59431641 20.34472656 18.37613281 20.36132812 19.18164062 C20.36633551 25.1754842 19.3886401 29.98823639 15.5625 34.8125 C11.02131626 38.26379964 7.61856901 38.36248832 2 38 C0 36 0 36 -0.22705078 32.46826172 C-0.22673363 30.95536669 -0.21540633 29.44244912 -0.1953125 27.9296875 C-0.1924826 27.13345978 -0.18965271 26.33723206 -0.18673706 25.51687622 C-0.1755264 22.96943237 -0.15042062 20.42233789 -0.125 17.875 C-0.11497133 16.14974465 -0.10584528 14.42448381 -0.09765625 12.69921875 C-0.07558422 8.46601086 -0.04104867 4.2330647 0 0 Z " fill="#FCFDFE" transform="translate(1227,1456)"/>
<path d="M0 0 C2.06132142 -0.10864945 4.12431321 -0.18588321 6.1875 -0.25 C7.33605469 -0.29640625 8.48460937 -0.3428125 9.66796875 -0.390625 C13.63806268 0.07480219 15.16778557 1.25249211 18 4 C20.84387257 7.73741561 20.33076101 12.31663923 20.3125 16.8125 C20.32861328 17.59431641 20.34472656 18.37613281 20.36132812 19.18164062 C20.36633551 25.1754842 19.3886401 29.98823639 15.5625 34.8125 C11.02131626 38.26379964 7.61856901 38.36248832 2 38 C0 36 0 36 -0.22705078 32.46826172 C-0.22673363 30.95536669 -0.21540633 29.44244912 -0.1953125 27.9296875 C-0.1924826 27.13345978 -0.18965271 26.33723206 -0.18673706 25.51687622 C-0.1755264 22.96943237 -0.15042062 20.42233789 -0.125 17.875 C-0.11497133 16.14974465 -0.10584528 14.42448381 -0.09765625 12.69921875 C-0.07558422 8.46601086 -0.04104867 4.2330647 0 0 Z " fill="#FCFDFE" transform="translate(1032,1250)"/>
<path d="M0 0 C3.97582942 3.22364548 6.0831909 6.40900321 6.87890625 11.49609375 C6.867058 23.07183284 6.867058 23.07183284 4.0625 27.1875 C0.41996486 30.74725025 -1.04700828 31.66234367 -6.0625 32.3125 C-10.7494055 31.74683899 -12.45146779 30.25812458 -15.6875 26.875 C-19.64177488 21.47082433 -19.46355063 15.30759747 -18.6875 8.875 C-17.43700114 5.04282607 -15.48406025 2.54238832 -12.375 -0.0625 C-7.9704729 -1.80382467 -4.37580188 -1.83173102 0 0 Z " fill="#FAFDFD" transform="translate(949.6875,1459.125)"/>
<path d="M0 0 C4.60250108 1.88284135 6.91224144 4.51518531 9 9 C9.7687385 15.71364953 10.08307603 22.31285839 6 28 C5.46375 28.763125 4.9275 29.52625 4.375 30.3125 C0.77568046 32.86991125 -2.61623879 33.56088527 -7 33 C-11.76092589 30.44886235 -14.4105961 27.14131122 -16 22 C-17.27972736 10.11044001 -17.27972736 10.11044001 -14.25 5.375 C-13.5075 4.59125 -12.765 3.8075 -12 3 C-11.4225 2.38125 -10.845 1.7625 -10.25 1.125 C-6.87462913 -0.56268543 -3.65385424 -0.5251048 0 0 Z " fill="#FAFDFD" transform="translate(653,1458)"/>
<path d="M0 0 C2.0625 0.4375 2.0625 0.4375 4 1 C5.39321185 6.01804144 5.63514347 11.139821 6.0625 16.3125 C6.15192871 17.38306641 6.24135742 18.45363281 6.33349609 19.55664062 C6.97937285 27.73036474 7.23641324 35.80434106 7 44 C5.125 44.625 5.125 44.625 3 45 C0.60236815 42.60236815 0.65719414 41.66726502 0.375 38.375 C0.30023437 37.55773438 0.22546875 36.74046875 0.1484375 35.8984375 C0.09945313 35.27195312 0.05046875 34.64546875 0 34 C-8.10325951 33.52724437 -8.10325951 33.52724437 -15.05859375 36.84765625 C-16.58780812 39.01696026 -16.58780812 39.01696026 -17.75390625 41.28515625 C-18.16511719 41.85105469 -18.57632813 42.41695312 -19 43 C-20.32 43 -21.64 43 -23 43 C-22.13344039 36.13028051 -19.13019686 30.87254611 -15.9375 24.8125 C-15.38900391 23.73935547 -14.84050781 22.66621094 -14.27539062 21.56054688 C-10.35526879 14.051901 -6.0475764 6.0475764 0 0 Z " fill="#0F0F0F" transform="translate(1029,1596)"/>
<path d="M0 0 C2.0625 0.6875 2.0625 0.6875 4 2 C5.1487361 5.31257885 5.2856028 8.72108355 5.53515625 12.19921875 C5.62216797 13.40900391 5.70917969 14.61878906 5.79882812 15.86523438 C5.88583984 17.12658203 5.97285156 18.38792969 6.0625 19.6875 C6.15337891 20.92951172 6.24425781 22.17152344 6.33789062 23.45117188 C7.62730783 41.74538435 7.62730783 41.74538435 6 45 C4.68 45 3.36 45 2 45 C0 37.375 0 37.375 0 34 C-4.775368 33.89660908 -9.32306874 33.973097 -14 35 C-16.06174194 37.00247215 -16.95343175 38.63054278 -18.0078125 41.28515625 C-18.33523438 41.85105469 -18.66265625 42.41695312 -19 43 C-20.32 43 -21.64 43 -23 43 C-22.57273022 36.45743153 -20.09517071 31.64958646 -17 25.9375 C-16.50959229 25.01807617 -16.01918457 24.09865234 -15.51391602 23.15136719 C-4.12395002 2.06197501 -4.12395002 2.06197501 0 0 Z " fill="#0D0D0D" transform="translate(889,1596)"/>
<path d="M0 0 C2.0625 0.6875 2.0625 0.6875 4 2 C5.1487361 5.31257885 5.2856028 8.72108355 5.53515625 12.19921875 C5.62216797 13.40900391 5.70917969 14.61878906 5.79882812 15.86523438 C5.88583984 17.12658203 5.97285156 18.38792969 6.0625 19.6875 C6.15337891 20.92951172 6.24425781 22.17152344 6.33789062 23.45117188 C7.62730783 41.74538435 7.62730783 41.74538435 6 45 C4.68 45 3.36 45 2 45 C0 37.375 0 37.375 0 34 C-4.775368 33.89660908 -9.32306874 33.973097 -14 35 C-16.06174194 37.00247215 -16.95343175 38.63054278 -18.0078125 41.28515625 C-18.33523438 41.85105469 -18.66265625 42.41695312 -19 43 C-20.32 43 -21.64 43 -23 43 C-22.57273022 36.45743153 -20.09517071 31.64958646 -17 25.9375 C-16.50959229 25.01807617 -16.01918457 24.09865234 -15.51391602 23.15136719 C-4.12395002 2.06197501 -4.12395002 2.06197501 0 0 Z " fill="#0D0D0D" transform="translate(581,1596)"/>
<path d="M0 0 C3.58552881 1.63687185 4.79315055 2.68972583 7 6 C7.62895554 10.36184754 7.43331872 14.03488104 5.625 18.0625 C5.08875 18.701875 4.5525 19.34125 4 20 C3.34 20 2.68 20 2 20 C1.93941406 19.07316406 1.87882813 18.14632813 1.81640625 17.19140625 C1.69072266 15.39509766 1.69072266 15.39509766 1.5625 13.5625 C1.48128906 12.36753906 1.40007813 11.17257812 1.31640625 9.94140625 C1.32343886 7.11429756 1.32343886 7.11429756 0 6 C-6.36724198 5.5030367 -6.36724198 5.5030367 -12 8 C-15.98632454 15.25635639 -18.07040585 22.70435465 -17 31 C-15.66362375 34.401685 -14.56521154 36.43478846 -12 39 C-8.33627571 39.48849657 -6.48402797 39.27501589 -3.25 37.4375 C-0.49904667 34.45730056 0.16937768 31.92657825 1 28 C-2.96 28 -6.92 28 -11 28 C-11 26.68 -11 25.36 -11 24 C-4.07 24 2.86 24 10 24 C10 24.99 10 25.98 10 27 C8.68 27.33 7.36 27.66 6 28 C5.896875 29.051875 5.79375 30.10375 5.6875 31.1875 C4.57376923 37.36364334 2.10116059 40.42918759 -3 44 C-6.73764289 45.24588096 -10.12431734 45.64594711 -14 45 C-18.66525671 42.00719381 -20.90541166 39.07047322 -23 34 C-24.00622178 24.94400401 -23.92449475 16.32956078 -18.41796875 8.8515625 C-13.11902917 2.4558925 -8.57432205 -1.30176954 0 0 Z " fill="#0D0D0D" transform="translate(740,1596)"/>
<path d="M0 0 C4.78346332 2.48740092 7.40737188 5.29486008 10 10 C12.22138247 18.95957597 11.73360672 27.02299609 7 35 C3.76761944 40.10280302 0.53887883 44.28707976 -5 47 C-9.33823043 47.6197472 -11.37930088 47.3342226 -15.25 45.25 C-20.05078705 41.32208332 -22.53991042 37.295834 -23.40625 31.08984375 C-23.6966016 21.32677114 -21.43767675 13.74244182 -14.66796875 6.5078125 C-6.7818698 -0.65210287 -6.7818698 -0.65210287 0 0 Z M-11 9 C-16.95498141 16.8363629 -19.10499671 24.1615353 -18 34 C-16.53528856 37.77361618 -14.37714283 39.74857145 -11 42 C-7.18836574 41.91713839 -5.38742712 41.30440703 -2.375 38.9375 C2.60513884 32.77785459 5.14105063 26.56014606 5.25 18.625 C5.27578125 17.50351563 5.3015625 16.38203125 5.328125 15.2265625 C4.86877024 10.70957403 3.16393435 8.16393435 0 5 C-4.78515728 4.20247379 -7.37672249 5.98060207 -11 9 Z " fill="#0E0E0E" transform="translate(1318,1595)"/>
<path d="M0 0 C4.549012 2.14071153 7.28557325 4.79534226 9.30078125 9.3359375 C11.34057622 17.10767029 11.33400919 26.21839238 7.9375 33.5625 C4.56440886 39.24500866 0.19379979 44.40611907 -6 47 C-10.09035523 47.45448391 -12.44699211 47.26023901 -16.1875 45.5 C-21.02930766 41.19617097 -22.69690774 37.72783038 -23.41796875 31.23828125 C-23.83372188 23.09878021 -23.14487557 16.60070575 -18 10 C-17.59265625 9.42894531 -17.1853125 8.85789062 -16.765625 8.26953125 C-12.24718141 2.32807134 -7.60449855 -1.08635694 0 0 Z M-15.3984375 14.26953125 C-18.2648703 20.56145289 -19.07374844 27.16089958 -18 34 C-16.62898416 36.71638395 -16.62898416 36.71638395 -15 39 C-14.5875 39.61875 -14.175 40.2375 -13.75 40.875 C-11.88175801 42.28568068 -11.88175801 42.28568068 -8.6875 42.125 C-3.21579782 40.45566713 -0.6838567 37.09253059 2.00390625 32.15625 C4.7605526 26.08363775 5.96548191 19.62671677 5 13 C3.79581625 9.86496988 2.37103895 7.38980707 0 5 C-6.68707728 2.77097424 -12.1327699 8.96966288 -15.3984375 14.26953125 Z " fill="#0D0D0D" transform="translate(1427,1595)"/>
<path d="M0 0 C4.549012 2.14071153 7.28557325 4.79534226 9.30078125 9.3359375 C11.34057622 17.10767029 11.33400919 26.21839238 7.9375 33.5625 C4.56440886 39.24500866 0.19379979 44.40611907 -6 47 C-10.09035523 47.45448391 -12.44699211 47.26023901 -16.1875 45.5 C-21.02930766 41.19617097 -22.69690774 37.72783038 -23.41796875 31.23828125 C-23.83372188 23.09878021 -23.14487557 16.60070575 -18 10 C-17.59265625 9.42894531 -17.1853125 8.85789062 -16.765625 8.26953125 C-12.24718141 2.32807134 -7.60449855 -1.08635694 0 0 Z M-15.3984375 14.26953125 C-18.2648703 20.56145289 -19.07374844 27.16089958 -18 34 C-16.62898416 36.71638395 -16.62898416 36.71638395 -15 39 C-14.5875 39.61875 -14.175 40.2375 -13.75 40.875 C-11.88175801 42.28568068 -11.88175801 42.28568068 -8.6875 42.125 C-3.21579782 40.45566713 -0.6838567 37.09253059 2.00390625 32.15625 C4.7605526 26.08363775 5.96548191 19.62671677 5 13 C3.79581625 9.86496988 2.37103895 7.38980707 0 5 C-6.68707728 2.77097424 -12.1327699 8.96966288 -15.3984375 14.26953125 Z " fill="#0D0D0D" transform="translate(1233,1595)"/>
<path d="M0 0 C5.05447688 2.52723844 7.8802255 5.81853707 10 11 C10.5638869 13.97970796 10.62089305 16.84845302 10.5625 19.875 C10.5471521 21.06863159 10.5471521 21.06863159 10.53149414 22.28637695 C10.19025546 31.71635804 6.36840672 37.12047104 -0.25390625 43.58984375 C-3.21247017 45.9791985 -5.54128506 46.93076001 -9.3125 47.5 C-14.21598854 46.8351202 -16.86868727 44.76687621 -20 41 C-24.08541454 34.26097507 -23.83491082 27.66527648 -23 20 C-20.5496017 11.7666617 -15.1499716 6.13778341 -8.4375 1.0625 C-5.30806174 -0.30161411 -3.38758535 -0.48394076 0 0 Z M-13 11 C-17.61216082 18.25165045 -18.91425934 25.46279455 -18 34 C-16.01031547 37.91075925 -14.63466354 39.57689098 -11 42 C-7.68024013 42.15089818 -5.74516291 41.60910344 -3.16015625 39.49609375 C2.68118752 33.38305957 5.01851857 26.69694319 5.375 18.3125 C5.19117956 13.12876359 3.7340972 8.7340972 0 5 C-6.01688451 3.88057963 -9.23474842 6.66813289 -13 11 Z " fill="#0C0C0C" transform="translate(820,1595)"/>
<path d="M0 0 C3.62416894 1.64734952 6.12851416 3.45402683 8 7 C8.58328584 12.24957258 7.65126436 15.47075673 5 20 C4.34 20 3.68 20 3 20 C2.95101563 19.15695312 2.90203125 18.31390625 2.8515625 17.4453125 C2.77679687 16.34960938 2.70203125 15.25390625 2.625 14.125 C2.55539062 13.03445313 2.48578125 11.94390625 2.4140625 10.8203125 C2.26746509 7.86953526 2.26746509 7.86953526 0 6 C-3.86188075 5.56280595 -6.2333682 5.58994113 -9.6875 7.4375 C-15.77741771 14.18578719 -16.44347648 20.8711656 -16.43359375 29.765625 C-15.96468889 33.26340176 -15.09779768 35.18925885 -13 38 C-10.14675563 39.42662219 -8.16545451 39.31033868 -5 39 C-1.15976916 36.81805066 -0.16037451 35.45821287 1.3125 31.25 C1.539375 30.1775 1.76625 29.105 2 28 C-1.96 28 -5.92 28 -10 28 C-10 26.68 -10 25.36 -10 24 C-3.07 24 3.86 24 11 24 C11 24.99 11 25.98 11 27 C9.68 27.33 8.36 27.66 7 28 C6.9175 29.03125 6.835 30.0625 6.75 31.125 C5.76775289 36.19994339 3.81556617 39.40450245 -0.0625 42.8125 C-4.08808987 45.27979702 -8.39807474 45.89341406 -13 45 C-17.65684327 42.3001181 -20.43707784 39.17533659 -22 34 C-22.84727854 25.37943342 -22.94931659 16.44356321 -18 9 C-12.37578658 2.98618742 -8.44381291 -0.57246189 0 0 Z " fill="#0A0A0A" transform="translate(1152,1596)"/>
<path d="M0 0 C1.86328125 1.27734375 1.86328125 1.27734375 3 3 C3 4.32 3 5.64 3 7 C-1.875 6.125 -1.875 6.125 -3 5 C-6.81232621 4.55670625 -8.78616876 4.89308438 -12.25 6.625 C-15.38000551 9.32818658 -15.87123031 11.11319872 -17 15 C-15.60974609 14.98259766 -15.60974609 14.98259766 -14.19140625 14.96484375 C-12.99386719 14.95582031 -11.79632812 14.94679688 -10.5625 14.9375 C-9.36753906 14.92589844 -8.17257812 14.91429687 -6.94140625 14.90234375 C-4 15 -4 15 -3 16 C-2.75 18.4375 -2.75 18.4375 -3 21 C-7.2111562 23.80743746 -10.9999904 23.3378376 -15.96875 23.4609375 C-19.0599968 23.72007295 -19.0599968 23.72007295 -20.8828125 25.81640625 C-22.51795261 29.01236191 -22.38494595 31.47132883 -22 35 C-21.01951062 37.06402685 -21.01951062 37.06402685 -19 38 C-16.1724011 38.75244501 -16.1724011 38.75244501 -13 38 C-11.03998209 36.56431809 -9.33660573 35.02393949 -7.61328125 33.3125 C-6 32 -6 32 -3 32 C-2.6875 34.1875 -2.6875 34.1875 -3 37 C-5.85989471 40.32366142 -8.78423059 43.63769691 -13.26953125 44.37109375 C-17.71840499 44.48727018 -20.99151799 44.56508745 -24.5625 41.6875 C-28.15891339 37.7222237 -28.33033165 34.42019984 -28.296875 29.29296875 C-27.78787315 25.36159923 -25.78881181 22.78881181 -23 20 C-22.86776481 18.43962479 -22.76931471 16.87632969 -22.6875 15.3125 C-22.10534928 9.12935369 -19.99194208 5.89234498 -15.5 1.625 C-10.47735312 -0.70694319 -5.45784022 -0.87419952 0 0 Z " fill="#0B0B0B" transform="translate(1006,1597)"/>
<path d="M0 0 C2.6875 2 2.6875 2 4 4 C3.67 4.99 3.34 5.98 3 7 C-0.875 6.125 -0.875 6.125 -2 5 C-5.81232621 4.55670625 -7.78616876 4.89308438 -11.25 6.625 C-14.33981284 9.29347472 -15.10732939 11.07224932 -16 15 C-15.15695312 14.97679687 -14.31390625 14.95359375 -13.4453125 14.9296875 C-11.80175781 14.90261719 -11.80175781 14.90261719 -10.125 14.875 C-8.48917969 14.84019531 -8.48917969 14.84019531 -6.8203125 14.8046875 C-4 15 -4 15 -2 17 C-2.1875 19 -2.1875 19 -3 21 C-7.1537677 23.76917847 -10.33182465 22.93311562 -15.1875 22.58203125 C-18.17126873 22.70846355 -18.17126873 22.70846355 -19.86328125 25.2109375 C-21.01179485 28.02893994 -21.32232558 29.80139536 -21.1875 32.8125 C-21.16042969 33.60269531 -21.13335938 34.39289063 -21.10546875 35.20703125 C-21.07066406 35.79871094 -21.03585937 36.39039063 -21 37 C-17.94891347 37.76104199 -15.14735194 38.22516826 -12 38 C-9.82939118 36.65628978 -8.25567296 35.20106384 -6.5078125 33.34765625 C-5 32 -5 32 -2 32 C-1.5625 34.125 -1.5625 34.125 -2 37 C-6.04240394 41.54227109 -9.6986825 43.7736409 -15.8125 44.375 C-19.13837543 44.35045479 -20.86645916 43.73648282 -23.4375 41.625 C-27.51064077 37.45251433 -27.38535411 34.47005386 -27.36328125 28.8046875 C-26.88952098 25.14705444 -25.50511907 23.52936709 -23.15625 20.80859375 C-21.66207168 18.47141618 -21.66189578 16.75409149 -21.5625 14 C-21.31284932 9.18321042 -19.92266372 6.85559925 -16.66796875 3.375 C-11.65448771 -0.75789304 -6.27648105 -0.81908554 0 0 Z " fill="#090909" transform="translate(557,1597)"/>
<path d="M0 0 C1.95766281 -0.08082094 3.91626728 -0.13910778 5.875 -0.1875 C7.51082031 -0.23970703 7.51082031 -0.23970703 9.1796875 -0.29296875 C10.11039063 -0.19628906 11.04109375 -0.09960938 12 0 C15.31982971 4.97974456 14.62920461 10.79498903 13.5 16.546875 C11.30184688 23.99062078 6.55014807 28.11823956 0.125 32.1875 C-2.65011542 33.24857354 -5.05647088 33.13379678 -8 33 C-7.34461671 26.16762917 -5.77263017 19.74727875 -4 13.125 C-3.72671875 12.08085938 -3.4534375 11.03671875 -3.171875 9.9609375 C-1.14466003 2.28932005 -1.14466003 2.28932005 0 0 Z " fill="#F7F7F7" transform="translate(1056,1602)"/>
<path d="M0 0 C1.95803507 -0.05389087 3.91648909 -0.09274217 5.875 -0.125 C7.51082031 -0.15980469 7.51082031 -0.15980469 9.1796875 -0.1953125 C12 0 12 0 14 2 C15.14369736 10.95695617 14.30768918 18.57798408 9 26 C5.1950924 29.8049076 0.5903622 32.83106333 -4.875 33.1875 C-5.926875 33.0946875 -5.926875 33.0946875 -7 33 C-7.58895915 25.83783605 -5.43352363 19.40448614 -3.5 12.5625 C-3.16613281 11.35400391 -2.83226562 10.14550781 -2.48828125 8.90039062 C-1.66679021 5.93128729 -0.83715646 2.96471708 0 0 Z " fill="#F8F8F8" transform="translate(847,1602)"/>
<path d="M0 0 C1.95605469 0.21704102 1.95605469 0.21704102 4 1 C5.29118801 3.67418068 6.30405235 6.14550654 7.25 8.9375 C7.518125 9.67935547 7.78625 10.42121094 8.0625 11.18554688 C10 16.63723693 10 16.63723693 10 19 C14.35753094 14.8603456 17.80874782 10.37938202 21.25 5.46484375 C23.27435586 2.71298501 24.50337571 1.15726436 27.8125 0.109375 C28.534375 0.07328125 29.25625 0.0371875 30 0 C29.64744893 5.46988328 26.34122542 8.88844326 23.0625 13 C21.87366391 14.51950465 20.68486218 16.03903617 19.49609375 17.55859375 C18.90425293 18.30866699 18.31241211 19.05874023 17.70263672 19.83154297 C15.72959335 22.34438656 13.79520846 24.88458376 11.86572266 27.4309082 C9.93342458 29.97194482 7.9682435 32.48675786 6 35 C5.34128906 35.85078125 4.68257812 36.7015625 4.00390625 37.578125 C3.40449219 38.31546875 2.80507813 39.0528125 2.1875 39.8125 C1.68605469 40.43769531 1.18460938 41.06289062 0.66796875 41.70703125 C-1.59708685 43.46284718 -3.21123104 43.24147235 -6 43 C-5.53041621 37.43645288 -2.09505836 34.3688609 1.58203125 30.54882812 C4.02508368 27.83626992 5.01839465 26.55183963 4.89453125 22.8359375 C3.8239349 19.44181981 2.42919771 16.25857078 1 13 C-0.34417823 8.89671908 -1.3823849 5.33369556 -1 1 C-0.67 0.67 -0.34 0.34 0 0 Z " fill="#0D0D0D" transform="translate(907,1597)"/>
<path d="M0 0 C1.12148438 0.00322266 2.24296875 0.00644531 3.3984375 0.00976562 C4.5740625 0.01814453 5.7496875 0.02652344 6.9609375 0.03515625 C8.14429688 0.03966797 9.32765625 0.04417969 10.546875 0.04882812 C13.47661257 0.06064158 16.40625022 0.07711367 19.3359375 0.09765625 C19.6659375 1.41765625 19.9959375 2.73765625 20.3359375 4.09765625 C17.90205997 5.31459501 15.91754904 5.41725521 13.2109375 5.66015625 C12.30085937 5.74394531 11.39078125 5.82773438 10.453125 5.9140625 C9.40511719 6.00494141 9.40511719 6.00494141 8.3359375 6.09765625 C5.73075905 16.89871065 3.1355123 27.69043787 0.9140625 38.578125 C0.3359375 41.09765625 0.3359375 41.09765625 -0.6640625 43.09765625 C-1.9840625 42.76765625 -3.3040625 42.43765625 -4.6640625 42.09765625 C-4.12294742 33.86081445 -2.45443586 26.00320714 -0.6015625 17.97265625 C-0.17907227 16.10867188 -0.17907227 16.10867188 0.25195312 14.20703125 C0.94128118 11.16931441 1.6360493 8.13295415 2.3359375 5.09765625 C-0.9640625 5.09765625 -4.2640625 5.09765625 -7.6640625 5.09765625 C-7.6640625 3.77765625 -7.6640625 2.45765625 -7.6640625 1.09765625 C-5.00228029 -0.23323485 -2.97666854 -0.01503368 0 0 Z " fill="#111111" transform="translate(779.6640625,1596.90234375)"/>
<path d="M0 0 C1.11568359 -0.00128906 2.23136719 -0.00257812 3.38085938 -0.00390625 C5.14333008 0.00189453 5.14333008 0.00189453 6.94140625 0.0078125 C8.11251953 0.00394531 9.28363281 0.00007813 10.49023438 -0.00390625 C12.16569336 -0.00197266 12.16569336 -0.00197266 13.875 0 C14.9055249 0.00112793 15.9360498 0.00225586 16.99780273 0.00341797 C19.50390625 0.1328125 19.50390625 0.1328125 21.50390625 1.1328125 C21.50390625 2.1228125 21.50390625 3.1128125 21.50390625 4.1328125 C18.85932246 5.45510439 16.82629324 5.22958444 13.87890625 5.1953125 C12.87601563 5.18628906 11.873125 5.17726563 10.83984375 5.16796875 C10.06898437 5.15636719 9.298125 5.14476562 8.50390625 5.1328125 C8.38789062 6.02871094 8.271875 6.92460938 8.15234375 7.84765625 C7.34192248 13.4992783 6.22511976 19.09353095 5.12890625 24.6953125 C4.92007812 25.80583984 4.71125 26.91636719 4.49609375 28.06054688 C3.42168138 33.53415381 2.39057231 38.33014294 -0.49609375 43.1328125 C-1.48609375 43.1328125 -2.47609375 43.1328125 -3.49609375 43.1328125 C-3.70658286 37.63106265 -2.96040139 32.84854933 -1.68359375 27.5078125 C-1.50344727 26.72744629 -1.32330078 25.94708008 -1.13769531 25.14306641 C-0.77197811 23.56206772 -0.40303668 21.98181115 -0.03076172 20.40234375 C0.46609881 18.2932956 0.95407514 16.18247499 1.4375 14.0703125 C2.12054207 11.08976528 2.80941472 8.11070801 3.50390625 5.1328125 C0.20390625 5.1328125 -3.09609375 5.1328125 -6.49609375 5.1328125 C-6.49609375 -0.80476004 -5.38874998 0.00590456 0 0 Z " fill="#101010" transform="translate(1191.49609375,1596.8671875)"/>
<path d="M0 0 C0.99 0 1.98 0 3 0 C2.60087272 8.70379815 0.32902762 16.80236075 -2.0625 25.125 C-2.4441271 26.47634593 -2.82499204 27.82790733 -3.20507812 29.1796875 C-4.12925211 32.45524085 -5.06359688 35.72792168 -6 39 C-0.72 39 4.56 39 10 39 C10 40.32 10 41.64 10 43 C7.66836164 44.16581918 6.27846518 44.12905609 3.68359375 44.1328125 C2.41418945 44.13474609 2.41418945 44.13474609 1.11914062 44.13671875 C0.23419922 44.13285156 -0.65074219 44.12898438 -1.5625 44.125 C-2.45130859 44.12886719 -3.34011719 44.13273437 -4.25585938 44.13671875 C-5.10083984 44.13542969 -5.94582031 44.13414063 -6.81640625 44.1328125 C-7.98345093 44.13112061 -7.98345093 44.13112061 -9.17407227 44.12939453 C-11 44 -11 44 -12 43 C-11.43789277 37.37892772 -10.12744668 31.97023521 -8.75 26.5 C-8.42273926 25.19518677 -8.42273926 25.19518677 -8.08886719 23.86401367 C-2.65626347 2.65626347 -2.65626347 2.65626347 0 0 Z " fill="#161616" transform="translate(963,1597)"/>
<path d="M0 0 C1.32 0 2.64 0 4 0 C3.43302982 6.80364222 2.07440989 12.96709954 0.125 19.5 C-0.25978516 20.82837891 -0.25978516 20.82837891 -0.65234375 22.18359375 C-2.30409104 27.83605559 -4.10727449 33.42382663 -6 39 C-0.72 39 4.56 39 10 39 C10.33 40.32 10.66 41.64 11 43 C8.65147472 44.17426264 7.26225935 44.11508173 4.6484375 44.09765625 C3.79765625 44.09443359 2.946875 44.09121094 2.0703125 44.08789062 C1.18085937 44.07951172 0.29140625 44.07113281 -0.625 44.0625 C-1.97078125 44.05573242 -1.97078125 44.05573242 -3.34375 44.04882812 C-5.56256648 44.03702591 -7.78125018 44.02056155 -10 44 C-11.64144193 38.96352602 -10.25512919 34.81456405 -8.9375 29.875 C-8.71360596 29.00713867 -8.48971191 28.13927734 -8.2590332 27.24511719 C-5.8415302 18.05910304 -2.96931787 9.02019586 0 0 Z " fill="#131313" transform="translate(514,1597)"/>
<path d="M0 0 C9.91668739 -0.61551853 9.91668739 -0.61551853 13.75 1.5625 C15.56873125 5.10902594 15.0972376 7.22824574 14 11 C11.21354583 13.78645417 8.48975217 14.94134834 4.51953125 15.09765625 C3.62621094 15.08605469 2.73289062 15.07445312 1.8125 15.0625 C0.46091797 15.04896484 0.46091797 15.04896484 -0.91796875 15.03515625 C-1.60503906 15.02355469 -2.29210938 15.01195312 -3 15 C-2.5547115 9.72684667 -1.91626837 4.98229776 0 0 Z " fill="#F8F8F8" transform="translate(1380,1601)"/>
<path d="M0 0 C9.91668739 -0.61551853 9.91668739 -0.61551853 13.75 1.5625 C15.56873125 5.10902594 15.0972376 7.22824574 14 11 C11.21354583 13.78645417 8.48975217 14.94134834 4.51953125 15.09765625 C3.62621094 15.08605469 2.73289062 15.07445312 1.8125 15.0625 C0.46091797 15.04896484 0.46091797 15.04896484 -0.91796875 15.03515625 C-1.60503906 15.02355469 -2.29210938 15.01195312 -3 15 C-2.5547115 9.72684667 -1.91626837 4.98229776 0 0 Z " fill="#F8F8F8" transform="translate(1345,1601)"/>
<path d="M0 0 C1.7492214 -0.08142927 3.49954542 -0.13938541 5.25 -0.1875 C6.22453125 -0.22230469 7.1990625 -0.25710938 8.203125 -0.29296875 C11.43062788 0.04510767 12.7377623 0.70084933 15 3 C15.5625 6.4375 15.5625 6.4375 15 10 C11.85568303 13.22929851 9.09076059 14.91768659 4.51953125 15.09765625 C3.62621094 15.08605469 2.73289062 15.07445312 1.8125 15.0625 C0.46091797 15.04896484 0.46091797 15.04896484 -0.91796875 15.03515625 C-1.60503906 15.02355469 -2.29210937 15.01195312 -3 15 C-2.68917128 13.24970238 -2.37626821 11.49977306 -2.0625 9.75 C-1.88847656 8.77546875 -1.71445312 7.8009375 -1.53515625 6.796875 C-1.09620271 4.50278205 -0.59651408 2.25708029 0 0 Z " fill="#FAFAFA" transform="translate(607,1601)"/>
<path d="M0 0 C1.32 0.33 2.64 0.66 4 1 C3.33370227 6.45350211 2.17264647 11.63431423 0.75 16.9375 C0.53255127 17.75710205 0.31510254 18.5767041 0.09106445 19.42114258 C-2.0423413 27.35429104 -4.4673316 35.18644854 -7 43 C-8.32 43 -9.64 43 -11 43 C-10.32448199 35.62407361 -8.50810333 28.65112382 -6.625 21.5 C-6.32078125 20.31535156 -6.0165625 19.13070313 -5.703125 17.91015625 C-4.10576558 11.78694515 -2.36825665 5.86978949 0 0 Z " fill="#161616" transform="translate(675,1597)"/>
<path d="M0 0 C0.99 0 1.98 0 3 0 C2.65385897 8.32469174 0.93767029 15.97110933 -1.40429688 23.95166016 C-2.03559373 26.1223899 -2.63458929 28.30083997 -3.234375 30.48046875 C-3.65455749 31.94579888 -4.07639274 33.41065625 -4.5 34.875 C-4.68916992 35.57133545 -4.87833984 36.2676709 -5.07324219 36.98510742 C-5.65625 38.9296875 -5.65625 38.9296875 -7 42 C-9.08398438 42.69189453 -9.08398438 42.69189453 -11 43 C-10.56195737 35.28297098 -8.87949889 28.31120195 -6.625 20.9375 C-6.32078125 19.91333984 -6.0165625 18.88917969 -5.703125 17.83398438 C-3.91357483 11.84969801 -2.00650356 5.91487706 0 0 Z " fill="#101010" transform="translate(1088,1597)"/>
<path d="M0 0 C2 1 2 1 2.68603516 3.00952148 C2.98453369 4.30224976 2.98453369 4.30224976 3.2890625 5.62109375 C3.61777344 7.02391602 3.61777344 7.02391602 3.953125 8.45507812 C4.17484375 9.43927734 4.3965625 10.42347656 4.625 11.4375 C4.85445312 12.41783203 5.08390625 13.39816406 5.3203125 14.40820312 C7 21.67185175 7 21.67185175 7 24 C3.04 24 -0.92 24 -5 24 C-3.85133834 15.78265118 -2.38853942 7.94587448 0 0 Z " fill="#F0F9FA" transform="translate(1044,1456)"/>
<path d="M0 0 C1.19109375 0.10054687 1.19109375 0.10054687 2.40625 0.203125 C4.5 0.75 4.5 0.75 6.5 3.75 C6.3125 6.8125 6.3125 6.8125 5.5 9.75 C1.45807022 12.44461986 -0.7051496 11.98200889 -5.5 11.75 C-6.5 10.75 -6.5 10.75 -6.59765625 8.46484375 C-6.58605469 7.54832031 -6.57445312 6.63179687 -6.5625 5.6875 C-6.55347656 4.76839844 -6.54445313 3.84929687 -6.53515625 2.90234375 C-6.52355469 2.19207031 -6.51195312 1.48179688 -6.5 0.75 C-4.04048544 -0.47975728 -2.71743376 -0.26468511 0 0 Z " fill="#F0F9FA" transform="translate(1142.5,1455.25)"/>
<path d="M0 0 C2 1.125 2 1.125 3 3 C2.875 6.5625 2.875 6.5625 2 10 C-1.08888522 12.05925681 -1.70935927 12.2390374 -5.1875 12.125 C-7.0746875 12.063125 -7.0746875 12.063125 -9 12 C-9 8.04 -9 4.08 -9 0 C-5.85000502 -1.57499749 -3.36459118 -0.70833498 0 0 Z " fill="#F1F9FB" transform="translate(853,1484)"/>
<path d="M0 0 C0.66 0 1.32 0 2 0 C2 4.95 2 9.9 2 15 C-0.97 15 -3.94 15 -7 15 C-5.45454854 9.52067211 -2.84456788 4.88570819 0 0 Z " fill="#F2F2F2" transform="translate(886,1609)"/>
<path d="M0 0 C0.66 0 1.32 0 2 0 C2 4.95 2 9.9 2 15 C-0.97 15 -3.94 15 -7 15 C-5.45454854 9.52067211 -2.84456788 4.88570819 0 0 Z " fill="#F2F2F2" transform="translate(578,1609)"/>
<path d="M0 0 C0.66 0 1.32 0 2 0 C2 4.95 2 9.9 2 15 C-0.97 15 -3.94 15 -7 15 C-4.78310181 9.93601936 -2.52361189 4.92104318 0 0 Z " fill="#F4F4F4" transform="translate(1026,1609)"/>
<path d="M0 0 C2.33944736 0.28730055 4.6739143 0.61936779 7 1 C8.3260274 6.42465753 8.3260274 6.42465753 6.9375 8.875 C4.24099753 10.44071111 2.05869541 10.20391303 -1 10 C-1.02689216 8.52093108 -1.04634621 7.04172517 -1.0625 5.5625 C-1.07410156 4.73878906 -1.08570313 3.91507813 -1.09765625 3.06640625 C-1 1 -1 1 0 0 Z " fill="#F4FAFB" transform="translate(844,1451)"/>
<path d="M0 0 C1.67542976 0.28604898 3.34385343 0.61781233 5 1 C5.43472498 6.2166998 5.43472498 6.2166998 5 9 C2.6875 11.5625 2.6875 11.5625 0 13 C-0.99 12.67 -1.98 12.34 -3 12 C-2.0022242 9.00667261 -1.2477975 8.05233685 1 6 C0.34 6 -0.32 6 -1 6 C-1.042721 4.33388095 -1.04063832 2.66617115 -1 1 C-0.67 0.67 -0.34 0.34 0 0 Z " fill="#171717" transform="translate(926,1638)"/>
<path d="M0 0 C9.57 1.32 19.14 2.64 29 4 C29 4.33 29 4.66 29 5 C18.32011479 4.4699529 7.65627556 3.89918304 -3 3 C-2.01 2.67 -1.02 2.34 0 2 C0 1.34 0 0.68 0 0 Z " fill="#B9E2E9" transform="translate(1099,488)"/>
<path d="M0 0 C2.0625 0.4375 2.0625 0.4375 4 1 C3.67 2.65 3.34 4.3 3 6 C1.35 5.67 -0.3 5.34 -2 5 C-1.125 1.125 -1.125 1.125 0 0 Z " fill="#111111" transform="translate(1485,1638)"/>
</svg>
